<?xml version="1.0" encoding="utf-8"?>
<!-- Generator: Adobe Illustrator 22.1.0, SVG Export Plug-In . SVG Version: 6.00 Build 0)  -->
<svg version="1.1" id="Layer_1" xmlns="http://www.w3.org/2000/svg" xmlns:xlink="http://www.w3.org/1999/xlink" x="0px" y="0px"
	 viewBox="0 0 404 387" style="enable-background:new 0 0 404 387;" xml:space="preserve">
<style type="text/css">
	.st0{fill:#5B79E8;}
	.st1{fill:#5DD6E2;}
</style>
<path class="st0" d="M60,252c-33.1,0-60-26.9-60-60s26.9-60,60-60s60,26.9,60,60S93.1,252,60,252z M60,148c-24.3,0-44,19.7-44,44
	s19.7,44,44,44s44-19.7,44-44S84.3,148,60,148z"/>
<path class="st0" d="M60,386.5c-33.1,0-60-26.9-60-60s26.9-60,60-60s60,26.9,60,60S93.1,386.5,60,386.5z M60,282.5
	c-24.3,0-44,19.7-44,44s19.7,44,44,44s44-19.7,44-44S84.3,282.5,60,282.5z"/>
<path class="st1" d="M301.5,176.5c-19.3,0-35-15.7-35-35s15.7-35,35-35s35,15.7,35,35S320.8,176.5,301.5,176.5z M301.5,121.5
	c-11,0-20,9-20,20s9,20,20,20s20-9,20-20S312.5,121.5,301.5,121.5z"/>
<path class="st1" d="M59.5,80.5c-2,0-4.1-0.8-5.7-2.3L31.3,55.7c-3.1-3.1-3.1-8.2,0-11.3c3.1-3.1,8.2-3.1,11.3,0l16.9,16.9
	l58.3-57.4c3.1-3.1,8.2-3.1,11.3,0.1s3.1,8.2-0.1,11.3l-64,63C63.6,79.7,61.5,80.5,59.5,80.5z"/>
<path class="st0" d="M361,35.1C356.4,15.6,338.8,1,317.9,1H149v0c-0.2,0-0.3,0-0.5,0c-4.2,0-7.7,3.4-7.7,7.7c0,4.2,3.4,7.7,7.7,7.7
	c0.2,0,0.3,0,0.5,0v0.1h168.9c12.3,0,22.9,7.8,27,18.6H134.2c-4.3,0-7.7,3.4-7.7,7.7s3.4,7.7,7.7,7.7h212.6l15.4,0.1
	c14.8,1.3,26.4,13.7,26.4,28.8v188.1l-26.4-24.2l-15.4-11.7c-10-4.2-22-2.7-30.7,4.5l-34.6,28.7c-3.8,3.2-8.8,4.4-13.6,3.5
	c-4.9-0.9-9-4-11.4-8.3l-24.3-44.6l-13.6-24.9v0l-24.5-44.9c-5.2-9.6-14.8-15.4-25.7-15.6c-10.9-0.2-20.7,5.3-26.3,14.7l-12.8,23.2
	l0.2,0.1c-0.5,1-0.8,2.2-0.8,3.5c0,4.3,3.4,7.7,7.7,7.7c3.4,0,6.3-2.2,7.3-5.3l11.7-21.4c2.7-4.6,7.5-7.2,12.7-7.1
	c5.3,0.1,10,2.9,12.5,7.6l38,69.8L276,328.2c1.4,2.6,4,4,6.8,4c1.2,0,2.5-0.3,3.7-0.9c3.7-2,5.1-6.7,3.1-10.4l-19.9-36.9
	c7.9,0.4,15.6-2.2,21.8-7.3l34.6-28.7c5.5-4.6,13.7-4.4,19.1,0.5l1.8,1.7l15.4,14.1l26.4,24.2V343c0,15.9-12.9,28.9-28.9,28.9H120.6
	c-0.4-0.1-0.7-0.1-1.1-0.1c-4.3,0-7.7,3.4-7.7,7.7c0,4.1,3.2,7.4,7.2,7.7v0.1h240.7c24.4,0,44.3-19.9,44.3-44.3V285V79.3
	C404,55.4,384.8,35.8,361,35.1z"/>
<path class="st1" d="M119.9,55.5c-0.3-0.9-0.6-1.4-0.6-2c0-4.3-3.5-7.8-7.8-7.8c-4.2,0-7.7,3.4-7.7,7.6c-0.1,0.1,0.2,4.1,0.2,6.2
	c0,24.3-19.7,44-44,44s-44-19.7-44-44s19.7-44,44-44c7.8,0,14.2,1.1,20.5,4.7c0,0,0,0,0,0c1.2,0.7,2.5,1.1,3.9,1.1
	c4.3,0,7.8-3.5,7.8-7.8c0.4-4.4-2.2-6-2.1-6.2C81.1,1.8,71.4-0.5,60-0.5c-33.1,0-60,26.9-60,60s26.9,60,60,60s60-26.9,60-60
	C120,58.2,119.9,56.8,119.9,55.5z"/>
</svg>
