<svg id="Layer_1" data-name="Layer 1" xmlns="http://www.w3.org/2000/svg" width="190" height="64" viewBox="0 0 190 64">
  <defs>
    <style>
      .cls-1 {
        fill: #7891f9;
      }

      .cls-2 {
        fill: #6480f9;
      }

      .cls-3 {
        fill: #5b79e8;
      }

      .cls-4, .cls-9 {
        fill: #fff;
      }

      .cls-5 {
        fill: #3bc5b6;
      }

      .cls-6 {
        fill: #0ba88e;
      }

      .cls-7 {
        fill: #54d3bd;
      }

      .cls-8 {
        fill: #91acf9;
      }

      .cls-9 {
        isolation: isolate;
        font-size: 10px;
        font-family: Lato-Regular, Lato;
      }

      .cls-10 {
        letter-spacing: -0.01em;
      }

      .cls-11 {
        letter-spacing: 0em;
      }

      .cls-12 {
        letter-spacing: -0.01em;
      }
    </style>
  </defs>
  <title>logo-light</title>
  <path class="cls-1" d="M30,42.12A12.12,12.12,0,1,1,42.08,30,12.12,12.12,0,0,1,30,42.12Zm0-19.59A7.49,7.49,0,1,0,37.46,30,7.49,7.49,0,0,0,30,22.53Z"/>
  <path class="cls-2" d="M30,8.85A21.17,21.17,0,0,0,8.83,30V51.28A30.07,30.07,0,0,0,13.46,55V30a16.54,16.54,0,1,1,4.42,11.26v6.09A21.15,21.15,0,1,0,30,8.85Z"/>
  <g>
    <path class="cls-3" d="M51,15.82l3.84-2.55A30,30,0,0,0,4.62,46V30A25.35,25.35,0,0,1,51,15.82Z"/>
    <path class="cls-3" d="M51.14,44A25.32,25.32,0,0,1,30,55.39a25.07,25.07,0,0,1-12.1-3.09v5.14A29.66,29.66,0,0,0,30,60,30,30,0,0,0,55,46.48Z"/>
  </g>
  <g>
    <path class="cls-4" d="M76.47,33.35V20.78h3.88V33.19a7.73,7.73,0,0,1-8.18,8.09C67,41.28,64,37.72,64,33.19V20.78h3.88V33.35a4.29,4.29,0,1,0,8.59,0Z"/>
    <path class="cls-4" d="M94.45,32.76c0-2.06-1-3.35-2.71-3.35a5.31,5.31,0,0,0-4.36,2.8v8.62H84V26.5h3.41v2.14a6.68,6.68,0,0,1,5.34-2.53c2.94,0,5.12,2.06,5.12,5.76V40.8H94.43v-8Z"/>
    <path class="cls-4" d="M103,20.82a2,2,0,0,1,2,2,1.92,1.92,0,0,1-2,1.91,1.88,1.88,0,0,1-1.91-1.91A1.92,1.92,0,0,1,103,20.82Zm-1.71,5.68h3.41V40.82h-3.41Z"/>
    <path class="cls-4" d="M131.21,35.76l1.73,3.07a12,12,0,0,1-7.46,2.43c-6.66,0-10.62-4.61-10.62-10.45s3.94-10.45,10.62-10.45a12.18,12.18,0,0,1,7.46,2.43l-1.73,3.09A9.52,9.52,0,0,0,125.46,24c-4.13,0-6.66,3.09-6.66,6.85a6.57,6.57,0,0,0,6.66,6.85A9.51,9.51,0,0,0,131.21,35.76Z"/>
    <path class="cls-4" d="M139.28,40.82H135.4V20.76h8c4.21,0,6.9,2.9,6.9,6.58a6.54,6.54,0,0,1-6.9,6.56h-4.15v6.91Zm0-16.52v6.11h3.86a3.06,3.06,0,1,0,0-6.11Z"/>
    <path class="cls-4" d="M151.76,30.8c0-5.82,3.94-10.45,10.62-10.45S173,25,173,30.8s-3.94,10.45-10.62,10.45S151.76,36.65,151.76,30.8Zm3.86,0a6.74,6.74,0,0,0,13.48,0,6.74,6.74,0,0,0-13.48,0Z"/>
  </g>
  <g>
    <polygon class="cls-1" points="137.66 61.5 144.13 64 144.13 61.67 137.66 59.17 137.66 61.5"/>
    <polygon class="cls-2" points="150.43 61.5 144.13 64 144.13 61.67 150.43 59.17 150.43 61.5"/>
    <polygon class="cls-3" points="144.13 56.83 137.66 59.17 144.13 61.67 150.43 59.17 144.13 56.83"/>
    <polygon class="cls-5" points="137.66 57.83 144.13 60.33 144.13 58 137.66 55.5 137.66 57.83"/>
    <polygon class="cls-6" points="150.43 57.83 144.13 60.33 144.13 58 150.43 55.5 150.43 57.83"/>
    <polygon class="cls-7" points="144.13 53 137.66 55.5 144.13 58 150.43 55.5 144.13 53"/>
    <polygon class="cls-1" points="137.66 54.17 140.09 55 140.09 52.67 137.66 51.83 137.66 54.17"/>
    <polygon class="cls-2" points="142.35 54.17 140.09 55 140.09 52.67 142.35 51.83 142.35 54.17"/>
    <polygon class="cls-8" points="140.09 51 137.66 51.83 140.09 52.67 142.35 51.83 140.09 51"/>
    <g>
      <path class="cls-4" d="M155.92,58.33a1.59,1.59,0,0,1,1.13,1.5,1.65,1.65,0,0,1-1.62,1.67h-2.75v-6h2.1c1.13,0,1.94.5,1.94,1.5A1.49,1.49,0,0,1,155.92,58.33Zm-1-1.83h-1.13V58h1.13a.78.78,0,0,0,.81-.83C155.76,56.83,155.27,56.5,154.95,56.5Zm0,4a.83.83,0,0,0,0-1.67h-1.13V60.5Z"/>
      <path class="cls-4" d="M158.66,59.67c0,.67.32,1,.81,1a1.92,1.92,0,0,0,1.29-.83v-2.5h1V61.5h-1v-.67a1.73,1.73,0,0,1-1.45.67,1.52,1.52,0,0,1-1.45-1.67V57.17h1l-.16,2.5Z"/>
      <path class="cls-4" d="M163.19,55.5a.5.5,0,0,1,0,1,.44.44,0,0,1-.48-.5A.74.74,0,0,1,163.19,55.5Zm-.48,1.67h1v4.17h-1Z"/>
      <path class="cls-4" d="M165.77,55.5v6h-1v-6Z"/>
      <path class="cls-4" d="M169.81,61.5V61a1.45,1.45,0,0,1-1.29.67,2.18,2.18,0,0,1,0-4.33,2,2,0,0,1,1.29.67V55.67h1v6l-1-.17Zm0-1.33v-1.5a1.14,1.14,0,0,0-1-.5,1.41,1.41,0,0,0-1.29,1.33,1.3,1.3,0,0,0,1.29,1.33A1.48,1.48,0,0,0,169.81,60.17Z"/>
      <path class="cls-4" d="M175.79,59.5h-3.23a1.17,1.17,0,0,0,1.29,1.17,1.8,1.8,0,0,0,1.29-.5l.32.67a3.32,3.32,0,0,1-1.78.67,2.25,2.25,0,0,1-.16-4.5,2,2,0,0,1,2.1,2.17A.52.52,0,0,1,175.79,59.5Zm-2.1-1.67a1.19,1.19,0,0,0-1.13,1h2.26A1,1,0,0,0,173.69,57.83Z"/>
      <path class="cls-4" d="M179,58a1.23,1.23,0,0,0-1.29,1v2.33h-1V57.17h1V58a1.64,1.64,0,0,1,1.29-.83Z"/>
      <path class="cls-4" d="M180.15,55.5a.5.5,0,0,1,0,1,.44.44,0,0,1-.48-.5A.53.53,0,0,1,180.15,55.5Zm-.48,1.67h1v4.17h-1Z"/>
      <path class="cls-4" d="M182.57,59.67c0,.67.32,1,.81,1a1.92,1.92,0,0,0,1.29-.83v-2.5h1V61.5h-1v-.67a1.73,1.73,0,0,1-1.45.67,1.52,1.52,0,0,1-1.45-1.67V57.17h1l-.16,2.5Z"/>
      <path class="cls-4" d="M186.61,58.33c0-.67.48-1.33,1.62-1.33a2,2,0,0,1,1.62.67l-.48.67a1.45,1.45,0,0,0-1.13-.5c-.48,0-.65.17-.65.5,0,.83,2.42.17,2.42,1.83,0,.83-.65,1.33-1.78,1.33a2.39,2.39,0,0,1-1.78-.67l.48-.67a2.11,2.11,0,0,0,1.29.5c.48,0,.81-.17.81-.5C188.87,59.33,186.61,60.17,186.61,58.33Z"/>
    </g>
  </g>
  <g id="Layer_2" data-name="Layer 2">
    <text class="cls-9" transform="translate(80 61.74) scale(0.97 1)"><tspan class="cls-10">P</tspan><tspan class="cls-11" x="5.96" y="0">owered </tspan><tspan class="cls-12" x="41.21" y="0">b</tspan><tspan x="46.67" y="0">y</tspan></text>
  </g>
</svg>
