<?xml version="1.0" encoding="utf-8"?>
<!-- Generator: Adobe Illustrator 22.1.0, SVG Export Plug-In . SVG Version: 6.00 Build 0)  -->
<svg version="1.1" id="Capa_1" xmlns="http://www.w3.org/2000/svg" xmlns:xlink="http://www.w3.org/1999/xlink" x="0px" y="0px"
	 viewBox="0 0 520.6 520.6" style="enable-background:new 0 0 520.6 520.6;" xml:space="preserve">
<style type="text/css">
	.st0{fill:#5B79E8;}
	.st1{fill:#5DD6E2;}
</style>
<path class="st0" d="M406.6,461.6L406.6,461.6c-3.9-4.3-10.5-4.6-14.8-0.8c-17.8,16-40,27-66.2,32.9c-25,5.6-52.2,6.2-81.1,1.8
	c-57.8-8.7-113.4-36.1-152.4-75.1c-38-38-61.2-86.3-67-139.6c-5.7-51.8,6.3-104.6,33.6-148.6c1.5-2.4,1.9-5.2,1.3-7.9
	c-0.6-2.7-2.3-5-4.7-6.5c-4.9-3-11.4-1.5-14.4,3.4C11.2,169.1-1.8,226.6,4.4,283c3.1,28.2,10.8,55.4,22.8,81
	c12.5,26.4,29.4,50.4,50.2,71.2c42.1,42.1,101.9,71.6,164.1,81c13.6,2.1,27.1,3.1,40.1,3.1c16.8,0,33.2-1.7,48.7-5.2
	c29.7-6.6,55.2-19.3,75.6-37.7C410.1,472.5,410.5,465.9,406.6,461.6z"/>
<path class="st1" d="M261.6,68.9c-18.3-18.3-48.1-18.3-66.4,0c-18.3,18.3-18.3,48.1,0,66.4c8.9,8.9,20.6,13.7,33.2,13.7
	c12.6,0,24.3-4.9,33.2-13.7C279.9,117,279.9,87.2,261.6,68.9z M246.8,120.5c-4.9,4.9-11.4,7.6-18.4,7.6c-7,0-13.5-2.7-18.4-7.6
	c-10.1-10.1-10.1-26.6,0-36.8c4.9-4.9,11.4-7.6,18.4-7.6c7,0,13.5,2.7,18.4,7.6C256.9,93.8,256.9,110.3,246.8,120.5z"/>
<path class="st1" d="M151.5,146.4L151.5,146.4c-18.3-18.3-48.1-18.3-66.4,0c-18.3,18.3-18.3,48.1,0,66.4
	c8.9,8.9,20.6,13.7,33.2,13.7c12.6,0,24.3-4.9,33.2-13.7C169.8,194.5,169.8,164.7,151.5,146.4z M144.3,179.6c0,7-2.7,13.5-7.6,18.4
	c-10.1,10.1-26.6,10.1-36.8,0c-4.9-4.9-7.6-11.4-7.6-18.4s2.7-13.5,7.6-18.4c4.9-4.9,11.4-7.6,18.4-7.6s13.5,2.7,18.4,7.6
	C141.6,166.1,144.3,172.7,144.3,179.6z"/>
<path class="st1" d="M136.6,275.5c-18.3-18.3-48.1-18.3-66.4,0c-18.3,18.3-18.3,48.1,0,66.4c8.9,8.9,20.6,13.7,33.2,13.7
	s24.3-4.9,33.2-13.7C154.9,323.6,154.9,293.8,136.6,275.5z M129.3,308.7c0,7-2.7,13.5-7.6,18.4c-4.9,4.9-11.4,7.6-18.4,7.6
	S89.9,332,85,327.1c-4.9-4.9-7.6-11.4-7.6-18.4s2.7-13.5,7.6-18.4s11.4-7.6,18.4-7.6c7,0,13.5,2.7,18.4,7.6
	C126.6,295.2,129.3,301.8,129.3,308.7z"/>
<path class="st1" d="M359.8,374.5c-18.3-18.3-48.1-18.3-66.4,0c-18.3,18.3-18.3,48.1,0,66.4c8.9,8.9,20.6,13.7,33.2,13.7
	c12.6,0,24.3-4.9,33.2-13.7C378.1,422.6,378.1,392.8,359.8,374.5z M352.6,407.7c0,7-2.7,13.5-7.6,18.4c-4.9,4.9-11.4,7.6-18.4,7.6
	c-7,0-13.5-2.7-18.4-7.6c-4.9-4.9-7.6-11.4-7.6-18.4s2.7-13.5,7.6-18.4c4.9-4.9,11.4-7.6,18.4-7.6c7,0,13.5,2.7,18.4,7.6
	C349.9,394.2,352.6,400.7,352.6,407.7z"/>
<path class="st0" d="M508.1,57.4c-12.2-12.2-32-12.8-44.9-1.4l-64,56.6c-0.6-15.7-4.6-30.6-11.9-44.2
	c-10.4-19.4-27.6-35.8-49.7-47.4C302.8,2.7,256.8-3.2,211.3,4.7c-50.4,8.8-96.7,33.2-133.9,70.4c-6.1,6.1-12,12.6-17.5,19.3
	c-1.8,2.2-2.6,4.9-2.3,7.7c0.3,2.8,1.6,5.3,3.8,7.1c2.2,1.8,4.9,2.6,7.7,2.3c2.8-0.3,5.3-1.6,7.1-3.8c5-6.1,10.4-12.1,16-17.8
	C135.4,46.8,182.8,31,215,25.4c41-7.2,82.1-2,112.9,14.2c18.4,9.7,32.6,23.1,41,38.8c8.6,15.9,11.4,34,8.3,53.8L316.4,186
	c-2.1,1.9-3.3,4.4-3.5,7.2c-0.2,2.8,0.8,5.5,2.6,7.6c0.3,0.3,0.5,0.5,0.8,0.8c0.1,0.1,0.2,0.2,0.3,0.3c0.2,0.1,0.4,0.3,0.5,0.4
	c0.1,0.1,0.2,0.1,0.3,0.2c0.2,0.1,0.4,0.2,0.6,0.4c0.1,0.1,0.2,0.1,0.4,0.2c0.2,0.1,0.4,0.2,0.6,0.3c0.1,0.1,0.3,0.1,0.4,0.2
	c0.2,0.1,0.4,0.2,0.6,0.2c0.2,0.1,0.3,0.1,0.5,0.1c0.2,0.1,0.4,0.1,0.6,0.1c0.2,0,0.3,0.1,0.5,0.1c0.2,0,0.4,0.1,0.6,0.1
	c0.2,0,0.3,0,0.5,0.1c0.2,0,0.4,0,0.5,0c0.2,0,0.4,0,0.6,0c0.1,0,0.3,0,0.4,0c0.2,0,0.4,0,0.6,0c0.1,0,0.3,0,0.4-0.1
	c0.2,0,0.4-0.1,0.6-0.1c0.1,0,0.3-0.1,0.4-0.1c0.2,0,0.4-0.1,0.5-0.1c0.1,0,0.3-0.1,0.4-0.1c0.2-0.1,0.4-0.1,0.6-0.2
	c0.1,0,0.2-0.1,0.3-0.1c0.2-0.1,0.4-0.2,0.6-0.3c0.1-0.1,0.2-0.1,0.3-0.2c0.2-0.1,0.4-0.2,0.6-0.4c0.1-0.1,0.2-0.1,0.3-0.2
	c0.3-0.2,0.5-0.4,0.8-0.6l146.8-130c4.7-4.1,11.8-3.9,16.2,0.5c4.4,4.4,4.6,11.5,0.5,16.2L313.7,291.9l-40-40l33.8-29.9
	c2.1-1.9,3.3-4.4,3.5-7.2c0.2-2.8-0.8-5.5-2.6-7.6c-1.9-2.1-4.4-3.3-7.2-3.5c-2.8-0.2-5.5,0.8-7.6,2.6l-42.1,37.3
	c-0.2,0.2-0.4,0.4-0.6,0.5l-0.2,0.2c-0.2,0.3-0.5,0.5-0.7,0.8l-27.6,37.4c-3.9-1.9-8.7-1.2-11.9,2l-22.8,22.8c-2,2-3.1,4.6-3.1,7.4
	c0,1.2,0.2,2.3,0.5,3.4c-7.8,2.4-14.9,6.6-20.6,12.4c-16.7,16.7-31.2,79.6-33.9,92c-0.8,3.5,0.3,7.1,2.8,9.6c2,2,4.6,3.1,7.4,3.1
	c0.8,0,1.5-0.1,2.2-0.2c12.4-2.7,75.3-17.2,92-33.9c5.8-5.8,10-12.9,12.4-20.6c1.1,0.4,2.2,0.5,3.4,0.5c2.8,0,5.4-1.1,7.4-3.1
	l22.8-22.8c3.2-3.2,3.9-8,2-11.9l37.3-27.6l0.1-0.1c0.3-0.2,0.5-0.4,0.8-0.7c0.1-0.1,0.1-0.1,0.2-0.2c0.2-0.2,0.4-0.4,0.6-0.6
	l50.3-56.8c7.4,14.5,16.9,27.8,26.2,40.6c13.4,18.6,26,36.1,31.8,56.1c6.3,21.9,3.3,43.9-9.6,69c-3.1,6-6.6,11.8-10.4,17.1
	c-3.4,4.7-2.3,11.2,2.4,14.6c1.8,1.3,3.9,2,6.1,2c3.4,0,6.6-1.6,8.5-4.4c4.4-6.2,8.5-12.9,12-19.8c15.2-29.8,18.9-57.4,11.1-84.4
	c-6.8-23.4-21.1-43.3-34.9-62.5c-11-15.2-21.4-29.7-28.1-45.5l122-137.8C520.9,89.3,520.3,69.6,508.1,57.4z M220.3,386.2
	c-7.2,7.2-37.2,17.2-65.3,24.3c7.2-28.1,17.1-58.1,24.3-65.3c5.5-5.5,12.7-8.5,20.5-8.5c0.9,0,1.8,0,2.7,0.1l26.2,26.2
	C229.4,371.6,226.4,380,220.3,386.2z M258.8,347.6l-8,8l-41-41l8-8L258.8,347.6z M298.1,305.9l-29.6,21.8l-30.9-30.9l21.8-29.6
	L298.1,305.9z"/>
</svg>
