<?xml version="1.0" encoding="utf-8"?>
<!-- Generator: Adobe Illustrator 21.1.0, SVG Export Plug-In . SVG Version: 6.00 Build 0)  -->
<svg version="1.1" id="Layer_1" xmlns="http://www.w3.org/2000/svg" xmlns:xlink="http://www.w3.org/1999/xlink" x="0px" y="0px"
	 width="400px" height="400px" viewBox="0 0 400 400" style="enable-background:new 0 0 400 400;" xml:space="preserve">
<style type="text/css">
	.st0{fill:#EDA6A1;}
	.st1{fill:#FFFFFF;}
	.st2{fill:#A3B9F7;}
	.st3{fill:#7891F9;}
	.st4{fill:#6480F9;}
	.st5{fill:#5B79E8;}
	.st6{fill:#3BC5B6;}
	.st7{fill:#0BA88E;}
	.st8{fill:#54D3BD;}
	.st9{fill:#91ACF9;}
	.st10{fill:#5A78E5;}
	.st11{fill:#9ADBD4;}
	.st12{fill:#5A627B;}
	.st13{fill:#806C6B;}
	.st14{fill:#4B7671;}
	.st15{fill:#64666E;}
	.st16{fill:#A3A6B2;}
	.st17{fill:#6F747D;}
	.st18{fill:#E67A73;}
	.st19{fill:#F1D834;}
	.st20{fill:#E5E5E5;}
	.st21{fill:#F75555;}
	.st22{fill:#D1C3C3;}
	.st23{fill:#333333;}
</style>
<g>
	<g>
		<path class="st0" d="M110.4,8.5h-1.3h-2l-0.2-0.8c-0.2-1-1.1-1.7-2.2-1.7h-2.5c-1,0-1.9,0.7-2.2,1.7l-0.2,0.8h-2h-1.3
			c-0.3,0-0.6,0.3-0.6,0.6s0.3,0.6,0.6,0.6h0.7l0.5,9.5c0.1,1,0.9,1.8,1.9,1.8h7.6c1,0,1.8-0.8,1.9-1.8l0.5-9.5h0.7
			c0.3,0,0.6-0.3,0.6-0.6S110.7,8.5,110.4,8.5z M101.3,8c0.1-0.4,0.5-0.7,0.9-0.7h2.5c0.4,0,0.8,0.3,0.9,0.7l0.1,0.5H101L101.3,8z
			 M101.6,17.9c0,0.3-0.3,0.6-0.6,0.6s-0.6-0.3-0.6-0.6v-6.2c0-0.3,0.3-0.6,0.6-0.6s0.6,0.3,0.6,0.6V17.9z M104.1,17.9
			c0,0.3-0.3,0.6-0.6,0.6s-0.6-0.3-0.6-0.6v-6.2c0-0.3,0.3-0.6,0.6-0.6s0.6,0.3,0.6,0.6V17.9z M106.6,17.9c0,0.3-0.3,0.6-0.6,0.6
			c-0.3,0-0.6-0.3-0.6-0.6v-6.2c0-0.3,0.3-0.6,0.6-0.6c0.3,0,0.6,0.3,0.6,0.6V17.9L106.6,17.9z"/>
	</g>
</g>
<g>
	<g>
		<path class="st1" d="M140.4,8.5h-1.3h-2l-0.2-0.8c-0.2-1-1.1-1.7-2.2-1.7h-2.5c-1,0-1.9,0.7-2.2,1.7l-0.2,0.8h-2h-1.3
			c-0.3,0-0.6,0.3-0.6,0.6s0.3,0.6,0.6,0.6h0.7l0.5,9.5c0.1,1,0.9,1.8,1.9,1.8h7.6c1,0,1.8-0.8,1.9-1.8l0.5-9.5h0.7
			c0.3,0,0.6-0.3,0.6-0.6C141,8.8,140.7,8.5,140.4,8.5z M131.3,8c0.1-0.4,0.5-0.7,0.9-0.7h2.5c0.4,0,0.8,0.3,0.9,0.7l0.1,0.5h-4.6
			L131.3,8z M131.6,17.9c0,0.3-0.3,0.6-0.6,0.6s-0.6-0.3-0.6-0.6v-6.2c0-0.3,0.3-0.6,0.6-0.6s0.6,0.3,0.6,0.6V17.9z M134.1,17.9
			c0,0.3-0.3,0.6-0.6,0.6s-0.6-0.3-0.6-0.6v-6.2c0-0.3,0.3-0.6,0.6-0.6s0.6,0.3,0.6,0.6V17.9z M136.6,17.9c0,0.3-0.3,0.6-0.6,0.6
			s-0.6-0.3-0.6-0.6v-6.2c0-0.3,0.3-0.6,0.6-0.6s0.6,0.3,0.6,0.6V17.9L136.6,17.9z"/>
	</g>
</g>
<g>
	<path class="st2" d="M163.5,8c-3.3,0-6.2,2.2-7.5,5.3c0,0.1,0,0.2,0,0.3c1.3,3.2,4.2,5.3,7.5,5.3s6.2-2.2,7.5-5.3
		c0-0.1,0-0.2,0-0.3C169.7,10.2,166.8,8,163.5,8z M163.5,17.3c-1.9,0-3.4-1.7-3.4-3.8s1.5-3.8,3.4-3.8s3.4,1.7,3.4,3.8
		S165.4,17.3,163.5,17.3z"/>
	<ellipse class="st2" cx="163.5" cy="13.5" rx="2.2" ry="2.4"/>
</g>
<g>
	<path class="st1" d="M193.5,8c-3.3,0-6.2,2.2-7.5,5.3c0,0.1,0,0.2,0,0.3c1.3,3.2,4.2,5.3,7.5,5.3s6.2-2.2,7.5-5.3
		c0-0.1,0-0.2,0-0.3C199.7,10.2,196.8,8,193.5,8z M193.5,17.3c-1.9,0-3.4-1.7-3.4-3.8s1.5-3.8,3.4-3.8s3.4,1.7,3.4,3.8
		S195.4,17.3,193.5,17.3z"/>
	<ellipse class="st1" cx="193.5" cy="13.5" rx="2.2" ry="2.4"/>
</g>
<g>
	<polygon class="st3" points="9,28.3 21,32.8 21,28.5 9,24.1 	"/>
	<polygon class="st4" points="33,28.3 21,32.8 21,28.5 33,24.1 	"/>
	<polygon class="st5" points="21,19.6 9,24.1 21,28.5 33,24.1 	"/>
	<polygon class="st6" points="9,21.6 21,26 21,21.8 9,17.3 	"/>
	<polygon class="st7" points="33,21.6 21,26 21,21.8 33,17.3 	"/>
	<polygon class="st8" points="21,12.9 9,17.3 21,21.8 33,17.3 	"/>
	<polygon class="st3" points="9,14.9 13.4,16.5 13.4,12.3 9,10.6 	"/>
	<polygon class="st4" points="17.8,14.9 13.4,16.5 13.4,12.3 17.8,10.6 	"/>
	<polygon class="st9" points="13.4,9 9,10.6 13.4,12.3 17.8,10.6 	"/>
</g>
<polygon class="st10" points="72,13.5 70.5,12 63.5,19 56.5,12 55,13.5 62,20.5 55,27.5 56.5,29 63.5,22 70.5,29 72,27.5 65,20.5 
	"/>
<path class="st10" d="M34,77.6l-3.9-3.9c0.8-1.1,1.3-2.5,1.3-4c0-3.7-3-6.7-6.7-6.7C21,63,18,66,18,69.7s3,6.7,6.7,6.7
	c1.5,0,2.9-0.5,4-1.3l3.9,3.9L34,77.6z M24.7,74.4c-2.6,0-4.7-2.1-4.7-4.7s2.1-4.7,4.7-4.7s4.7,2.1,4.7,4.7S27.3,74.4,24.7,74.4z"/>
<g>
	<path class="st2" d="M11.8,102.5c0-2.5,1.4-4.7,3.5-5.8c-0.9-0.5-1.8-0.7-2.9-0.7C8.9,96,6,98.9,6,102.5s2.9,6.5,6.4,6.5
		c1,0,2-0.2,2.9-0.7C13.2,107.2,11.8,105,11.8,102.5z"/>
	<polygon class="st2" points="14.7,100.7 13.6,100.9 14.4,101.7 14.2,102.9 15.3,102.4 16.3,102.9 16.1,101.7 17,100.9 15.8,100.7 
		15.3,99.6 	"/>
	<polygon class="st2" points="18,105.3 17.2,105.2 16.9,104.5 16.6,105.2 15.8,105.3 16.4,105.9 16.2,106.7 16.9,106.3 17.6,106.7 
		17.4,105.9 	"/>
</g>
<path class="st2" d="M41.6,108.6l-0.3-1c-0.1-0.2,0-0.4,0.2-0.6s0.5-0.4,0.7-0.7c0.1-0.2,0.4-0.3,0.6-0.2l1.1,0.2
	c0.3,0.1,0.5-0.1,0.6-0.4l0.2-0.7l0.2-0.7c0.1-0.3,0-0.5-0.2-0.7l-0.9-0.5c-0.2-0.1-0.3-0.3-0.3-0.5c0-0.3,0-0.6,0-1
	c0-0.2,0.1-0.4,0.3-0.6l0.9-0.6c0.2-0.2,0.3-0.4,0.2-0.7l-0.3-0.6l-0.3-0.7c-0.1-0.2-0.4-0.4-0.6-0.3l-1,0.3c-0.2,0.1-0.5,0-0.6-0.2
	c-0.2-0.2-0.5-0.4-0.7-0.7c-0.2-0.2-0.3-0.4-0.2-0.6l0.2-1.1c0.1-0.3-0.1-0.5-0.4-0.6l-0.7-0.2L39.6,95c-0.3-0.1-0.5,0-0.7,0.2
	l-0.5,0.9c-0.1,0.2-0.3,0.3-0.5,0.3c-0.3,0-0.7,0-1,0c-0.2,0-0.5-0.1-0.6-0.3l-0.6-0.9C35.5,95,35.3,94.9,35,95l-0.7,0.3l-0.7,0.3
	c-0.2,0.1-0.4,0.4-0.3,0.6l0.3,1.1c0.1,0.2,0,0.4-0.2,0.6s-0.5,0.4-0.7,0.7c-0.1,0.2-0.4,0.3-0.6,0.2L31,98.6
	c-0.3-0.1-0.5,0.1-0.6,0.3l-0.2,0.7l-0.2,0.7c-0.1,0.3,0,0.5,0.2,0.7l0.9,0.5c0.2,0.1,0.3,0.3,0.3,0.5c0,0.3,0,0.6,0,1
	c0,0.2-0.1,0.4-0.3,0.6l-0.9,0.6c-0.2,0.2-0.3,0.4-0.2,0.7l0.3,0.6l0.3,0.7c0.1,0.2,0.4,0.4,0.6,0.3l1.1-0.3c0.2-0.1,0.5,0,0.6,0.2
	c0.2,0.2,0.5,0.4,0.7,0.7c0.2,0.1,0.3,0.4,0.2,0.6l-0.2,1.1c-0.1,0.3,0.1,0.5,0.4,0.6l0.7,0.2l0.7,0.2c0.3,0.1,0.5,0,0.7-0.2
	l0.5-0.9c0.1-0.2,0.3-0.3,0.5-0.3c0.3,0,0.6,0,0.9,0c0.2,0,0.4,0.1,0.6,0.3l0.6,0.9c0.2,0.2,0.4,0.3,0.7,0.2l0.7-0.3l0.7-0.3
	C41.6,109.1,41.7,108.8,41.6,108.6z M40.5,103.6c-0.6,1.7-2.4,2.5-4.1,1.9c-1.7-0.6-2.5-2.4-2-4.1s2.4-2.5,4.1-1.9
	C40.2,100.1,41.1,101.9,40.5,103.6z"/>
<g>
	<rect x="59.1" y="96" class="st2" width="9.9" height="2.1"/>
	<rect x="59.1" y="106.9" class="st2" width="9.9" height="2.1"/>
	<rect x="59.1" y="101.4" class="st2" width="9.9" height="2.1"/>
	<circle class="st2" cx="57.1" cy="97.1" r="1.1"/>
	<circle class="st2" cx="57.1" cy="102.5" r="1.1"/>
	<circle class="st2" cx="57.1" cy="107.9" r="1.1"/>
</g>
<g>
	<g>
		<path class="st0" d="M94.4,97.5h-1.3h-2l-0.2-0.8c-0.2-1-1.1-1.7-2.2-1.7h-2.5c-1,0-1.9,0.7-2.2,1.7l-0.2,0.8h-2h-1.3
			c-0.3,0-0.6,0.3-0.6,0.6c0,0.3,0.3,0.6,0.6,0.6h0.7l0.5,9.5c0.1,1,0.9,1.8,1.9,1.8h7.6c1,0,1.8-0.8,1.9-1.8l0.5-9.5h0.7
			c0.3,0,0.6-0.3,0.6-0.6S94.7,97.5,94.4,97.5z M85.3,97c0.1-0.4,0.5-0.7,0.9-0.7h2.5c0.4,0,0.8,0.3,0.9,0.7l0.1,0.5H85L85.3,97z
			 M85.6,106.9c0,0.3-0.3,0.6-0.6,0.6s-0.6-0.3-0.6-0.6v-6.2c0-0.3,0.3-0.6,0.6-0.6s0.6,0.3,0.6,0.6V106.9z M88.1,106.9
			c0,0.3-0.3,0.6-0.6,0.6s-0.6-0.3-0.6-0.6v-6.2c0-0.3,0.3-0.6,0.6-0.6s0.6,0.3,0.6,0.6V106.9z M90.6,106.9c0,0.3-0.3,0.6-0.6,0.6
			c-0.3,0-0.6-0.3-0.6-0.6v-6.2c0-0.3,0.3-0.6,0.6-0.6c0.3,0,0.6,0.3,0.6,0.6V106.9L90.6,106.9z"/>
	</g>
</g>
<g>
	<path class="st11" d="M106.9,109h11.2c0.5,0,0.9-0.4,0.9-0.9v-8.5c0-0.4-0.1-0.7-0.4-0.9L116,96l0,0v4.9h-7V96h-2.1
		c-0.5,0-0.9,0.4-0.9,0.9v8.3v2.9C106,108.6,106.4,109,106.9,109z"/>
	<rect x="113" y="96" class="st11" width="1.9" height="4"/>
</g>
<g>
	<path class="st1" d="M281.9,109h11.2c0.5,0,0.9-0.4,0.9-0.9v-8.5c0-0.4-0.1-0.7-0.4-0.9L291,96l0,0v4.9h-7V96h-2.1
		c-0.5,0-0.9,0.4-0.9,0.9v8.3v2.9C281,108.6,281.4,109,281.9,109z"/>
	<rect x="288" y="96" class="st1" width="1.9" height="4"/>
</g>
<g>
	<path class="st2" d="M137.5,97c-3.3,0-6.2,2.2-7.5,5.3c0,0.1,0,0.2,0,0.3c1.3,3.2,4.2,5.3,7.5,5.3s6.2-2.2,7.5-5.3
		c0-0.1,0-0.2,0-0.3C143.7,99.2,140.8,97,137.5,97z M137.5,106.3c-1.9,0-3.4-1.7-3.4-3.8c0-2.1,1.5-3.8,3.4-3.8s3.4,1.7,3.4,3.8
		C140.9,104.6,139.4,106.3,137.5,106.3z"/>
	<ellipse class="st2" cx="137.5" cy="102.5" rx="2.2" ry="2.4"/>
</g>
<path class="st12" d="M41.6,133.6l-0.3-1c-0.1-0.2,0-0.4,0.2-0.6c0.2-0.2,0.5-0.4,0.7-0.7c0.1-0.2,0.4-0.3,0.6-0.2l1.1,0.2
	c0.3,0.1,0.5-0.1,0.6-0.4l0.2-0.7l0.2-0.7c0.1-0.3,0-0.5-0.2-0.7l-0.9-0.5c-0.2-0.1-0.3-0.3-0.3-0.5c0-0.3,0-0.6,0-1
	c0-0.2,0.1-0.4,0.3-0.6l0.9-0.6c0.2-0.2,0.3-0.4,0.2-0.7l-0.3-0.6l-0.3-0.7c-0.1-0.2-0.4-0.4-0.6-0.3l-1,0.3c-0.2,0.1-0.5,0-0.6-0.2
	c-0.2-0.2-0.5-0.4-0.7-0.7c-0.2-0.2-0.3-0.4-0.2-0.6l0.2-1.1c0.1-0.3-0.1-0.5-0.4-0.6l-0.7-0.2l-0.7-0.3c-0.3-0.1-0.5,0-0.7,0.2
	l-0.5,0.9c-0.1,0.2-0.3,0.3-0.5,0.3c-0.3,0-0.7,0-1,0c-0.2,0-0.5-0.1-0.6-0.3l-0.6-0.9c-0.2-0.2-0.4-0.3-0.7-0.2l-0.7,0.3l-0.7,0.3
	c-0.2,0.1-0.4,0.4-0.3,0.6l0.3,1.1c0.1,0.2,0,0.4-0.2,0.6s-0.5,0.4-0.7,0.7c-0.1,0.2-0.4,0.3-0.6,0.2l-1.1-0.2
	c-0.3-0.1-0.5,0.1-0.6,0.3l-0.2,0.7l-0.2,0.7c-0.1,0.3,0,0.5,0.2,0.7l0.9,0.5c0.2,0.1,0.3,0.3,0.3,0.5c0,0.3,0,0.6,0,1
	c0,0.2-0.1,0.4-0.3,0.6l-0.9,0.6c-0.2,0.1-0.3,0.4-0.2,0.7l0.3,0.6l0.3,0.7c0.1,0.2,0.4,0.4,0.6,0.3l1.1-0.3c0.2-0.1,0.5,0,0.6,0.2
	c0.2,0.2,0.5,0.4,0.7,0.7c0.2,0.1,0.3,0.4,0.2,0.6l-0.2,1.1c-0.1,0.3,0.1,0.5,0.4,0.6l0.7,0.2l0.7,0.2c0.3,0.1,0.5,0,0.7-0.2
	l0.5-0.9c0.1-0.2,0.3-0.3,0.5-0.3c0.3,0,0.6,0,0.9,0c0.2,0,0.4,0.1,0.6,0.3l0.6,0.9c0.2,0.2,0.4,0.3,0.7,0.2l0.7-0.3l0.7-0.3
	C41.6,134.1,41.7,133.8,41.6,133.6z M40.5,128.6c-0.6,1.7-2.4,2.5-4.1,1.9c-1.7-0.6-2.5-2.4-2-4.1s2.4-2.5,4.1-1.9
	C40.2,125.1,41.1,126.9,40.5,128.6z"/>
<g>
	<rect x="59.1" y="121" class="st12" width="9.9" height="2.1"/>
	<rect x="59.1" y="131.9" class="st12" width="9.9" height="2.1"/>
	<rect x="59.1" y="126.4" class="st12" width="9.9" height="2.1"/>
	<circle class="st12" cx="57.1" cy="122.1" r="1.1"/>
	<circle class="st12" cx="57.1" cy="127.5" r="1.1"/>
	<circle class="st12" cx="57.1" cy="132.9" r="1.1"/>
</g>
<g>
	<g>
		<path class="st13" d="M94.4,122.5h-1.3h-2l-0.2-0.8c-0.2-1-1.1-1.7-2.2-1.7h-2.5c-1,0-1.9,0.7-2.2,1.7l-0.2,0.8h-2h-1.3
			c-0.3,0-0.6,0.3-0.6,0.6c0,0.3,0.3,0.6,0.6,0.6h0.7l0.5,9.5c0.1,1,0.9,1.8,1.9,1.8h7.6c1,0,1.8-0.8,1.9-1.8l0.5-9.5h0.7
			c0.3,0,0.6-0.3,0.6-0.6S94.7,122.5,94.4,122.5z M85.3,122c0.1-0.4,0.5-0.7,0.9-0.7h2.5c0.4,0,0.8,0.3,0.9,0.7l0.1,0.5H85L85.3,122
			z M85.6,131.9c0,0.3-0.3,0.6-0.6,0.6s-0.6-0.3-0.6-0.6v-6.2c0-0.3,0.3-0.6,0.6-0.6s0.6,0.3,0.6,0.6V131.9z M88.1,131.9
			c0,0.3-0.3,0.6-0.6,0.6s-0.6-0.3-0.6-0.6v-6.2c0-0.3,0.3-0.6,0.6-0.6s0.6,0.3,0.6,0.6V131.9z M90.6,131.9c0,0.3-0.3,0.6-0.6,0.6
			c-0.3,0-0.6-0.3-0.6-0.6v-6.2c0-0.3,0.3-0.6,0.6-0.6c0.3,0,0.6,0.3,0.6,0.6V131.9L90.6,131.9z"/>
	</g>
</g>
<g>
	<path class="st14" d="M106.9,134h11.2c0.5,0,0.9-0.4,0.9-0.9v-8.5c0-0.4-0.1-0.7-0.4-0.9L116,121l0,0v4.9h-7V121h-2.1
		c-0.5,0-0.9,0.4-0.9,0.9v8.3v2.9C106,133.6,106.4,134,106.9,134z"/>
	<rect x="113" y="121" class="st14" width="1.9" height="4"/>
</g>
<g>
	<path class="st12" d="M137.5,122c-3.3,0-6.2,2.2-7.5,5.3c0,0.1,0,0.2,0,0.3c1.3,3.2,4.2,5.3,7.5,5.3s6.2-2.2,7.5-5.3
		c0-0.1,0-0.2,0-0.3C143.7,124.2,140.8,122,137.5,122z M137.5,131.3c-1.9,0-3.4-1.7-3.4-3.8c0-2.1,1.5-3.8,3.4-3.8s3.4,1.7,3.4,3.8
		S139.4,131.3,137.5,131.3z"/>
	<ellipse class="st12" cx="137.5" cy="127.5" rx="2.2" ry="2.4"/>
</g>
<g>
	<g id="wb-sunny">
		<path class="st12" d="M9,122.9l-1.2-1.2l-1,1l1.2,1.2L9,122.9z M7,126.8H5v1.4h2V126.8z M13.2,120h-1.4v2h1.4V120z M18.3,122.7
			l-1-1l-1.2,1.2l1,1L18.3,122.7z M16,132.1l1.2,1.2l1-1l-1.2-1.2L16,132.1z M18,126.8v1.4h2v-1.4C20,126.8,18,126.8,18,126.8z
			 M12.5,123.4c-2.3,0-4.1,1.9-4.1,4.1s1.8,4.1,4.1,4.1s4.1-1.9,4.1-4.1C16.6,125.2,14.8,123.4,12.5,123.4z M11.8,135
			c0.2,0,1.4,0,1.4,0v-2h-1.4V135z M6.7,132.3l1,1l1.2-1.2l-1-1L6.7,132.3z"/>
	</g>
</g>
<g id="Layer_1_1_">
</g>
<path class="st1" d="M48.9,156.8l-0.2-0.7c0-0.2,0-0.3,0.1-0.4c0.2-0.2,0.3-0.3,0.5-0.5c0.1-0.1,0.3-0.2,0.4-0.2l0.8,0.2
	c0.2,0,0.4-0.1,0.5-0.3l0.2-0.5l0.2-0.5c0.1-0.2,0-0.4-0.2-0.5l-0.7-0.4c-0.1-0.1-0.2-0.2-0.2-0.4s0-0.5,0-0.7s0.1-0.3,0.2-0.4
	l0.7-0.5c0.2-0.1,0.2-0.3,0.1-0.5l-0.2-0.5l-0.2-0.5c-0.1-0.2-0.3-0.3-0.5-0.2l-0.8,0.2c-0.2,0-0.3,0-0.4-0.1
	c-0.2-0.2-0.3-0.3-0.5-0.5c-0.1-0.1-0.2-0.3-0.2-0.4l0.2-0.8c0-0.2-0.1-0.4-0.3-0.5l-0.5-0.2l-0.5-0.2c-0.2-0.1-0.4,0-0.5,0.2
	l-0.4,0.7c-0.1,0.1-0.2,0.2-0.4,0.2s-0.5,0-0.7,0s-0.3-0.1-0.4-0.2l-0.5-0.6c-0.1-0.2-0.3-0.2-0.5-0.1l-0.5,0.2l-0.5,0.2
	c-0.2,0.1-0.3,0.3-0.2,0.5l0.2,0.8c0,0.2,0,0.3-0.1,0.4c-0.2,0.2-0.3,0.3-0.5,0.5c-0.1,0.1-0.3,0.2-0.4,0.2l-0.8-0.2
	c-0.2,0-0.4,0.1-0.5,0.2l-0.2,0.5l-0.2,0.5c-0.1,0.2,0,0.4,0.2,0.5l0.7,0.4c0.1,0.1,0.2,0.2,0.2,0.4s0,0.5,0,0.7s-0.1,0.3-0.2,0.4
	l-0.7,0.5c-0.2,0.1-0.2,0.3-0.1,0.5l0.2,0.5l0.2,0.5c0.1,0.2,0.3,0.3,0.5,0.2l0.8-0.2c0.2,0,0.3,0,0.4,0.1c0.2,0.2,0.3,0.3,0.5,0.5
	c0.1,0.1,0.2,0.3,0.2,0.4L43,157c0,0.2,0.1,0.4,0.3,0.5l0.5,0.2l0.5,0.2c0.2,0.1,0.4,0,0.5-0.2l0.4-0.7c0.1-0.1,0.2-0.2,0.4-0.2
	s0.5,0,0.7,0s0.3,0.1,0.4,0.2l0.5,0.7c0.1,0.2,0.3,0.2,0.5,0.1l0.5-0.2l0.5-0.2C48.8,157.2,48.9,157,48.9,156.8z M48.1,153.2
	c-0.4,1.2-1.8,1.8-3,1.4c-1.2-0.4-1.9-1.8-1.4-2.9c0.4-1.2,1.8-1.8,3-1.4C47.8,150.7,48.5,152,48.1,153.2z"/>
<path class="st1" d="M42.9,160.4l-0.3-0.4c-0.1-0.1-0.1-0.2,0-0.3s0.1-0.3,0.2-0.4c0-0.1,0.1-0.2,0.2-0.2l0.5-0.1
	c0.1,0,0.2-0.1,0.2-0.3v-0.4V158c0-0.1-0.1-0.3-0.2-0.3l-0.5-0.1c-0.1,0-0.2-0.1-0.2-0.2c0-0.2-0.1-0.3-0.2-0.4c0-0.1,0-0.2,0-0.3
	l0.3-0.4c0.1-0.1,0.1-0.2,0-0.3l-0.2-0.2l-0.2-0.3c-0.1-0.1-0.2-0.1-0.3,0l-0.4,0.3c-0.1,0.1-0.2,0.1-0.3,0s-0.3-0.1-0.4-0.2
	c-0.1,0-0.2-0.1-0.2-0.2l-0.1-0.5c0-0.1-0.1-0.2-0.3-0.2h-0.4h-0.3c-0.1,0-0.3,0.1-0.3,0.2l-0.1,0.5c0,0.1-0.1,0.2-0.2,0.2
	c-0.2,0-0.3,0.1-0.5,0.2c-0.1,0-0.2,0-0.3,0l-0.4-0.3c-0.1-0.1-0.2-0.1-0.3,0l-0.3,0.2l-0.3,0.2c-0.1,0.1-0.1,0.2,0,0.3l0.3,0.4
	c0.1,0.1,0.1,0.2,0,0.3s-0.1,0.3-0.2,0.4c0,0.1-0.1,0.2-0.2,0.2l-0.5,0.1c-0.1,0-0.2,0.1-0.2,0.3v0.4v0.4c0,0.1,0.1,0.3,0.2,0.3H37
	c0.1,0,0.2,0.1,0.2,0.2c0,0.2,0.1,0.3,0.2,0.4c0,0.1,0,0.2,0,0.3l-0.3,0.4c-0.1,0.1-0.1,0.2,0,0.3l0.3,0.2l0.2,0.3
	c0.1,0.1,0.2,0.1,0.3,0l0.4-0.3c0.1-0.1,0.2-0.1,0.3,0s0.3,0.1,0.4,0.2c0.1,0,0.2,0.1,0.2,0.2l0.1,0.5c0,0.1,0.1,0.2,0.3,0.2H40h0.4
	c0.1,0,0.3-0.1,0.3-0.2l0.1-0.5c0-0.1,0.1-0.2,0.2-0.2c0.1,0,0.3-0.1,0.4-0.2c0.1,0,0.2,0,0.3,0l0.4,0.3c0.1,0.1,0.2,0.1,0.3,0
	l0.3-0.2l0.3-0.2C42.9,160.7,43,160.5,42.9,160.4z M41.6,158.3c0,0.8-0.7,1.5-1.6,1.5c-0.9,0-1.6-0.7-1.6-1.5s0.7-1.5,1.6-1.5
	C40.9,156.8,41.6,157.5,41.6,158.3z"/>
<path class="st1" d="M77.1,148h-5h-1.9v1.9v2.1h-2.1H66v1.9v5v1.9h1.9h5h1.9v-1.9v-2.1h2.1H79V155v-5v-2H77.1z M67.9,159.1v-5h5v5
	H67.9z M77.1,155H75v-1v-1.9h-2h-1V150h5L77.1,155L77.1,155z"/>
<polygon class="st1" points="108,149.7 106.3,148 101.5,152.8 96.7,148 95,149.7 99.8,154.5 95,159.3 96.7,161 101.5,156.2 
	106.3,161 108,159.3 103.2,154.5 "/>
<path class="st1" d="M21.7,153.8l-1.9-1.9c-0.2-0.2-0.4-0.3-0.6-0.3c-0.6,0-0.9,0.5-0.9,0.9c0,0.2,0.1,0.5,0.3,0.6l0.3,0.3h-3.4V150
	l0.3,0.3c0.2,0.2,0.4,0.3,0.6,0.3c0.5,0,0.9-0.4,0.9-0.9c0-0.2-0.1-0.5-0.3-0.6l-1.9-1.9c-0.2-0.2-0.3-0.3-0.7-0.3
	c-0.3,0-0.5,0.2-0.7,0.3l-1.9,1.9c-0.2,0.2-0.3,0.4-0.3,0.6c0,0.6,0.5,0.9,0.9,0.9c0.2,0,0.5-0.1,0.6-0.3l0.3-0.3v3.4H9.9l0.3-0.3
	c0.2-0.2,0.3-0.4,0.3-0.6c0-0.5-0.4-0.9-0.9-0.9c-0.2,0-0.5,0.1-0.6,0.3l-1.9,1.9c0.1,0.2-0.1,0.4-0.1,0.7s0.1,0.5,0.3,0.7l1.9,1.9
	c0.2,0.2,0.4,0.3,0.6,0.3c0.6,0,0.9-0.5,0.9-0.9c0-0.2-0.1-0.5-0.3-0.6l-0.3-0.3h3.4v3.4l-0.3-0.3c-0.2-0.2-0.4-0.3-0.6-0.3
	c-0.5,0-0.9,0.4-0.9,0.9c0,0.2,0.1,0.5,0.3,0.6l1.9,1.9c0.2,0.2,0.3,0.3,0.7,0.3c0.3,0,0.5-0.1,0.7-0.3l1.9-1.9
	c0.2-0.2,0.3-0.4,0.3-0.6c0-0.6-0.5-0.9-0.9-0.9c-0.2,0-0.5,0.1-0.6,0.3l-0.3,0.3v-3.4h3.4l-0.3,0.3c-0.2,0.2-0.3,0.4-0.3,0.6
	c0,0.5,0.4,0.9,0.9,0.9c0.2,0,0.5-0.1,0.6-0.3l1.9-1.9c0.2-0.2,0.3-0.3,0.3-0.7C22,154.2,21.8,154,21.7,153.8z"/>
<polygon class="st1" points="231.8,0.5 230.3,1.9 234.7,6 230.3,10.1 231.8,11.5 237.7,6 "/>
<polygon class="st1" points="246.2,11.5 247.7,10.1 243.3,6 247.7,1.9 246.2,0.5 240.3,6 "/>
<rect x="127" y="157" class="st15" width="10" height="4"/>
<rect x="121" y="151" class="st15" width="16" height="4"/>
<rect x="127" y="163" class="st15" width="10" height="4"/>
<rect x="121" y="157" class="st15" width="4" height="10"/>
<rect x="147" y="157" class="st3" width="10" height="4"/>
<rect x="141" y="151" class="st3" width="16" height="4"/>
<rect x="147" y="163" class="st3" width="10" height="4"/>
<rect x="141" y="157" class="st3" width="4" height="10"/>
<g>
	<g id="palette">
		<path class="st15" d="M169,150c-5,0-9,4-9,9s4,9,9,9c0.8,0,1.5-0.7,1.5-1.5c0-0.4-0.1-0.7-0.4-1c-0.2-0.3-0.4-0.6-0.4-1
			c0-0.8,0.7-1.5,1.5-1.5h1.8c2.8,0,5-2.2,5-5C178,153.6,174,150,169,150z M163.5,159c-0.8,0-1.5-0.7-1.5-1.5s0.7-1.5,1.5-1.5
			s1.5,0.7,1.5,1.5S164.3,159,163.5,159z M166.5,155c-0.8,0-1.5-0.7-1.5-1.5s0.7-1.5,1.5-1.5s1.5,0.7,1.5,1.5S167.3,155,166.5,155z
			 M171.5,155c-0.8,0-1.5-0.7-1.5-1.5s0.7-1.5,1.5-1.5s1.5,0.7,1.5,1.5S172.3,155,171.5,155z M174.5,159c-0.8,0-1.5-0.7-1.5-1.5
			s0.7-1.5,1.5-1.5s1.5,0.7,1.5,1.5S175.3,159,174.5,159z"/>
	</g>
</g>
<g>
	<g id="palette_1_">
		<path class="st3" d="M189,150c-5,0-9,4-9,9s4,9,9,9c0.8,0,1.5-0.7,1.5-1.5c0-0.4-0.1-0.7-0.4-1c-0.2-0.3-0.4-0.6-0.4-1
			c0-0.8,0.7-1.5,1.5-1.5h1.8c2.8,0,5-2.2,5-5C198,153.6,194,150,189,150z M183.5,159c-0.8,0-1.5-0.7-1.5-1.5s0.7-1.5,1.5-1.5
			s1.5,0.7,1.5,1.5S184.3,159,183.5,159z M186.5,155c-0.8,0-1.5-0.7-1.5-1.5s0.7-1.5,1.5-1.5s1.5,0.7,1.5,1.5S187.3,155,186.5,155z
			 M191.5,155c-0.8,0-1.5-0.7-1.5-1.5s0.7-1.5,1.5-1.5s1.5,0.7,1.5,1.5S192.3,155,191.5,155z M194.5,159c-0.8,0-1.5-0.7-1.5-1.5
			s0.7-1.5,1.5-1.5s1.5,0.7,1.5,1.5S195.3,159,194.5,159z"/>
	</g>
</g>
<path class="st15" d="M214,166.3l-0.3-1.2c-0.1-0.3,0-0.5,0.2-0.7c0.3-0.2,0.5-0.5,0.8-0.8c0.2-0.2,0.4-0.3,0.7-0.3l1.3,0.2
	c0.3,0.1,0.6-0.1,0.7-0.4l0.3-0.8l0.3-0.8c0.1-0.3,0-0.7-0.3-0.8l-1.1-0.7c-0.2-0.1-0.4-0.4-0.4-0.7c0-0.4,0-0.8,0-1.1
	s0.1-0.5,0.3-0.7l1.1-0.7c0.3-0.2,0.4-0.5,0.2-0.8l-0.4-0.8l-0.4-0.8c-0.1-0.3-0.4-0.4-0.8-0.4l-1.2,0.4c-0.3,0.1-0.5,0-0.7-0.2
	c-0.2-0.3-0.5-0.5-0.8-0.8c-0.2-0.2-0.3-0.4-0.3-0.7l0.2-1.3c0.1-0.3-0.1-0.6-0.4-0.7l-0.8-0.3l-0.8-0.3c-0.3-0.1-0.7,0-0.8,0.3
	l-0.6,1.1c-0.1,0.2-0.4,0.4-0.7,0.4c-0.4,0-0.8,0-1.2,0c-0.3,0-0.5-0.1-0.7-0.3l-0.7-1.1c-0.2-0.3-0.5-0.4-0.8-0.2l-0.8,0.4
	l-0.8,0.4c-0.3,0.1-0.4,0.4-0.4,0.8l0.3,1.3c0.1,0.3,0,0.5-0.2,0.7c-0.3,0.3-0.5,0.5-0.8,0.9c-0.2,0.2-0.4,0.3-0.7,0.3l-1.3-0.2
	c-0.3-0.1-0.6,0.1-0.7,0.4l-0.3,0.8l-0.3,0.8c-0.1,0.3,0,0.7,0.3,0.8l1.1,0.7c0.2,0.1,0.4,0.4,0.4,0.7c0,0.4,0,0.8,0,1.1
	s-0.1,0.5-0.3,0.7l-1.1,0.7c-0.3,0.2-0.4,0.5-0.2,0.8l0.4,0.8l0.4,0.8c0.1,0.3,0.4,0.4,0.8,0.4l1.3-0.3c0.3-0.1,0.5,0,0.7,0.2
	c0.3,0.3,0.5,0.5,0.9,0.8c0.2,0.2,0.3,0.4,0.3,0.7l-0.2,1.3c-0.1,0.3,0.1,0.6,0.4,0.7l0.8,0.3l0.8,0.3c0.3,0.1,0.6,0,0.8-0.3
	l0.6-1.1c0.1-0.2,0.4-0.4,0.7-0.4c0.4,0,0.7,0,1.1,0c0.3,0,0.5,0.1,0.7,0.3l0.7,1.1c0.2,0.3,0.5,0.4,0.8,0.2l0.8-0.4l0.8-0.4
	C213.9,166.9,214.1,166.6,214,166.3z M212.6,160.3c-0.7,2-2.9,3-4.9,2.3s-3-2.9-2.3-4.9s2.9-3,4.9-2.3S213.3,158.3,212.6,160.3z"/>
<path class="st3" d="M234,166.3l-0.3-1.2c-0.1-0.3,0-0.5,0.2-0.7c0.3-0.2,0.5-0.5,0.8-0.8c0.2-0.2,0.4-0.3,0.7-0.3l1.3,0.2
	c0.3,0.1,0.6-0.1,0.7-0.4l0.3-0.8l0.3-0.8c0.1-0.3,0-0.7-0.3-0.8l-1.1-0.7c-0.2-0.1-0.4-0.4-0.4-0.7c0-0.4,0-0.8,0-1.1
	s0.1-0.5,0.3-0.7l1.1-0.7c0.3-0.2,0.4-0.5,0.2-0.8l-0.4-0.8l-0.4-0.8c-0.1-0.3-0.4-0.4-0.8-0.4l-1.2,0.4c-0.3,0.1-0.5,0-0.7-0.2
	c-0.2-0.3-0.5-0.5-0.8-0.8c-0.2-0.2-0.3-0.4-0.3-0.7l0.2-1.3c0.1-0.3-0.1-0.6-0.4-0.7l-0.8-0.3l-0.8-0.3c-0.3-0.1-0.7,0-0.8,0.3
	l-0.6,1.1c-0.1,0.2-0.4,0.4-0.7,0.4c-0.4,0-0.8,0-1.2,0c-0.3,0-0.5-0.1-0.7-0.3l-0.7-1.1c-0.2-0.3-0.5-0.4-0.8-0.2l-0.8,0.4
	l-0.8,0.4c-0.3,0.1-0.4,0.4-0.4,0.8l0.3,1.3c0.1,0.3,0,0.5-0.2,0.7c-0.3,0.3-0.5,0.5-0.8,0.9c-0.2,0.2-0.4,0.3-0.7,0.3l-1.3-0.2
	c-0.3-0.1-0.6,0.1-0.7,0.4l-0.3,0.8l-0.3,0.8c-0.1,0.3,0,0.7,0.3,0.8l1.1,0.7c0.2,0.1,0.4,0.4,0.4,0.7c0,0.4,0,0.8,0,1.1
	s-0.1,0.5-0.3,0.7l-1.1,0.7c-0.3,0.2-0.4,0.5-0.2,0.8l0.4,0.8l0.4,0.8c0.1,0.3,0.5,0.4,0.8,0.4l1.3-0.3c0.3-0.1,0.5,0,0.7,0.2
	c0.3,0.3,0.5,0.5,0.9,0.8c0.2,0.2,0.3,0.4,0.3,0.7l-0.2,1.3c-0.1,0.3,0.1,0.6,0.4,0.7l0.8,0.3l0.8,0.3c0.3,0.1,0.7,0,0.8-0.3
	l0.7-1.1c0.1-0.2,0.4-0.4,0.7-0.4c0.4,0,0.7,0,1.1,0c0.3,0,0.5,0.1,0.7,0.3l0.7,1.1c0.2,0.3,0.5,0.4,0.8,0.2l0.8-0.4l0.8-0.4
	C233.9,166.9,234.1,166.6,234,166.3z M232.6,160.3c-0.7,2-2.9,3-4.9,2.3s-3-2.9-2.3-4.9s2.9-3,4.9-2.3S233.3,158.3,232.6,160.3z"/>
<polygon class="st16" points="268,6.2 266.8,5 261.5,10.3 256.2,5 255,6.2 260.3,11.5 255,16.8 256.2,18 261.5,12.7 266.8,18 
	268,16.8 262.7,11.5 "/>
<g>
	<g>
		<path class="st17" d="M296.8,21.3l-0.7,0.6c-0.6,0.6-1.5,0.6-2.1,0c-0.3-0.3-0.4-0.6-0.4-1s0.1-0.7,0.4-1l2.4-2.4
			c0.5-0.5,1.4-1.2,2.1-0.6c0.3,0.3,0.8,0.3,1.1,0c0.3-0.3,0.3-0.8,0-1.1c-1.2-1.2-2.9-0.9-4.4,0.6l-2.4,2.4
			c-0.6,0.6-0.9,1.3-0.9,2.2s0.3,1.6,0.9,2.2s1.4,0.9,2.2,0.9s1.6-0.3,2.2-0.9l0.7-0.6c0.3-0.3,0.3-0.8,0-1.1
			C297.6,21,297.1,21,296.8,21.3z M304.1,12c-1.3-1.3-3-1.3-4.2-0.2l-0.8,0.8c-0.3,0.3-0.3,0.8,0,1.1s0.8,0.3,1.1,0l0.8-0.8
			c0.6-0.6,1.4-0.4,1.9,0.2c0.3,0.3,0.4,0.6,0.4,1s-0.1,0.7-0.4,1l-2.6,2.6c-1.2,1.2-1.7,0.6-2,0.4c-0.3-0.3-0.8-0.3-1.1,0
			c-0.3,0.3-0.3,0.8,0,1.1c0.5,0.5,1.2,0.8,1.8,0.8c0.8,0,1.6-0.4,2.4-1.2l2.6-2.6c0.6-0.6,0.9-1.3,0.9-2.2
			C305,13.3,304.7,12.6,304.1,12z"/>
	</g>
</g>
<g>
	<g>
		<path class="st1" d="M336.8,21.3l-0.7,0.6c-0.6,0.6-1.5,0.6-2.1,0c-0.3-0.3-0.4-0.6-0.4-1s0.1-0.7,0.4-1l2.4-2.4
			c0.5-0.5,1.4-1.2,2.1-0.6c0.3,0.3,0.8,0.3,1.1,0c0.3-0.3,0.3-0.8,0-1.1c-1.2-1.2-2.9-0.9-4.4,0.6l-2.4,2.4
			c-0.6,0.6-0.9,1.3-0.9,2.2s0.3,1.6,0.9,2.2s1.4,0.9,2.2,0.9s1.6-0.3,2.2-0.9l0.7-0.6c0.3-0.3,0.3-0.8,0-1.1
			C337.6,21,337.1,21,336.8,21.3z M344.1,12c-1.3-1.3-3-1.3-4.2-0.2l-0.8,0.8c-0.3,0.3-0.3,0.8,0,1.1s0.8,0.3,1.1,0l0.8-0.8
			c0.6-0.6,1.4-0.4,1.9,0.2c0.3,0.3,0.4,0.6,0.4,1s-0.1,0.7-0.4,1l-2.6,2.6c-1.2,1.2-1.7,0.6-2,0.4c-0.3-0.3-0.8-0.3-1.1,0
			c-0.3,0.3-0.3,0.8,0,1.1c0.5,0.5,1.2,0.8,1.8,0.8c0.8,0,1.6-0.4,2.4-1.2l2.6-2.6c0.6-0.6,0.9-1.3,0.9-2.2
			C345,13.3,344.7,12.6,344.1,12z"/>
	</g>
</g>
<path class="st17" d="M262.5,170.7c0,0.2-0.2,0.3-0.4,0.3h-12.7c-0.2,0-0.4-0.1-0.4-0.3v-1.3c0-0.2,0.2-0.3,0.4-0.3h12.7
	c0.2,0,0.4,0.1,0.4,0.3V170.7z M265.5,165.3c0-0.2-0.2-0.3-0.4-0.3h-15.7c-0.2,0-0.4,0.1-0.4,0.3v1.3c0,0.2,0.2,0.3,0.4,0.3h15.7
	c0.2,0,0.4-0.1,0.4-0.3V165.3z M259.5,161.3c0-0.2-0.2-0.3-0.4-0.3h-9.7c-0.2,0-0.4,0.1-0.4,0.3v1.3c0,0.2,0.2,0.3,0.4,0.3h9.7
	c0.2,0,0.4-0.1,0.4-0.3V161.3z M267,173.3c0-0.2-0.2-0.3-0.4-0.3h-17.3c-0.2,0-0.4,0.1-0.4,0.3v1.3c0,0.2,0.2,0.3,0.4,0.3h17.3
	c0.2,0,0.4-0.1,0.4-0.3V173.3z"/>
<path class="st2" d="M166.3,104.8c0,0.2-0.2,0.2-0.3,0.2h-10.5c-0.2,0-0.3-0.1-0.3-0.2v-1.1c0-0.2,0.2-0.2,0.3-0.2H166
	c0.2,0,0.3,0.1,0.3,0.2V104.8z M168.8,100.3c0-0.2-0.2-0.2-0.3-0.2h-13c-0.2,0-0.3,0.1-0.3,0.2v1.1c0,0.2,0.2,0.2,0.3,0.2h13
	c0.2,0,0.3-0.1,0.3-0.2V100.3z M163.8,97c0-0.2-0.2-0.2-0.3-0.2h-8c-0.2,0-0.3,0.1-0.3,0.2v1.1c0,0.2,0.2,0.2,0.3,0.2h8
	c0.2,0,0.3-0.1,0.3-0.2V97z M170,106.9c0-0.2-0.2-0.2-0.3-0.2h-14.3c-0.2,0-0.3,0.1-0.3,0.2v1.1c0,0.2,0.2,0.2,0.3,0.2h14.3
	c0.2,0,0.3-0.1,0.3-0.2V106.9z"/>
<path class="st12" d="M166.3,129.8c0,0.2-0.2,0.2-0.3,0.2h-10.5c-0.2,0-0.3-0.1-0.3-0.2v-1.1c0-0.2,0.2-0.2,0.3-0.2H166
	c0.2,0,0.3,0.1,0.3,0.2V129.8z M168.8,125.3c0-0.2-0.2-0.2-0.3-0.2h-13c-0.2,0-0.3,0.1-0.3,0.2v1.1c0,0.2,0.2,0.2,0.3,0.2h13
	c0.2,0,0.3-0.1,0.3-0.2V125.3z M163.8,122c0-0.2-0.2-0.2-0.3-0.2h-8c-0.2,0-0.3,0.1-0.3,0.2v1.1c0,0.2,0.2,0.2,0.3,0.2h8
	c0.2,0,0.3-0.1,0.3-0.2V122z M170,131.9c0-0.2-0.2-0.2-0.3-0.2h-14.3c-0.2,0-0.3,0.1-0.3,0.2v1.1c0,0.2,0.2,0.2,0.3,0.2h14.3
	c0.2,0,0.3-0.1,0.3-0.2V131.9z"/>
<path class="st2" d="M183.7,103.7c0-0.2,0.2-0.2,0.3-0.2h10.5c0.2,0,0.3,0.1,0.3,0.2v1.1c0,0.2-0.2,0.2-0.3,0.2H184
	c-0.2,0-0.3-0.1-0.3-0.2V103.7z M181.2,101.4c0,0.2,0.2,0.2,0.3,0.2h13c0.2,0,0.3-0.1,0.3-0.2v-1.1c0-0.2-0.2-0.2-0.3-0.2h-13
	c-0.2,0-0.3,0.1-0.3,0.2V101.4z M186.2,98.1c0,0.2,0.2,0.2,0.3,0.2h8c0.2,0,0.3-0.1,0.3-0.2V97c0-0.2-0.2-0.2-0.3-0.2h-8
	c-0.2,0-0.3,0.1-0.3,0.2V98.1z M180,108c0,0.2,0.2,0.2,0.3,0.2h14.3c0.2,0,0.3-0.1,0.3-0.2v-1.1c0-0.2-0.2-0.2-0.3-0.2h-14.3
	c-0.2,0-0.3,0.1-0.3,0.2V108z"/>
<path class="st12" d="M183.7,128.7c0-0.2,0.2-0.2,0.3-0.2h10.5c0.2,0,0.3,0.1,0.3,0.2v1.1c0,0.2-0.2,0.2-0.3,0.2H184
	c-0.2,0-0.3-0.1-0.3-0.2V128.7z M181.2,126.4c0,0.2,0.2,0.2,0.3,0.2h13c0.2,0,0.3-0.1,0.3-0.2v-1.1c0-0.2-0.2-0.2-0.3-0.2h-13
	c-0.2,0-0.3,0.1-0.3,0.2V126.4z M186.2,123.1c0,0.2,0.2,0.2,0.3,0.2h8c0.2,0,0.3-0.1,0.3-0.2V122c0-0.2-0.2-0.2-0.3-0.2h-8
	c-0.2,0-0.3,0.1-0.3,0.2V123.1z M180,133c0,0.2,0.2,0.2,0.3,0.2h14.3c0.2,0,0.3-0.1,0.3-0.2v-1.1c0-0.2-0.2-0.2-0.3-0.2h-14.3
	c-0.2,0-0.3,0.1-0.3,0.2V133z"/>
<path class="st1" d="M302.5,170.7c0,0.2-0.2,0.3-0.4,0.3h-12.7c-0.2,0-0.4-0.1-0.4-0.3v-1.3c0-0.2,0.2-0.3,0.4-0.3h12.7
	c0.2,0,0.4,0.1,0.4,0.3V170.7z M305.5,165.3c0-0.2-0.2-0.3-0.4-0.3h-15.7c-0.2,0-0.4,0.1-0.4,0.3v1.3c0,0.2,0.2,0.3,0.4,0.3h15.7
	c0.2,0,0.4-0.1,0.4-0.3V165.3z M299.5,161.3c0-0.2-0.2-0.3-0.4-0.3h-9.7c-0.2,0-0.4,0.1-0.4,0.3v1.3c0,0.2,0.2,0.3,0.4,0.3h9.7
	c0.2,0,0.4-0.1,0.4-0.3V161.3z M307,173.3c0-0.2-0.2-0.3-0.4-0.3h-17.3c-0.2,0-0.4,0.1-0.4,0.3v1.3c0,0.2,0.2,0.3,0.4,0.3h17.3
	c0.2,0,0.4-0.1,0.4-0.3V173.3z"/>
<path class="st17" d="M253.5,209.3c0-0.2,0.2-0.3,0.4-0.3h12.7c0.2,0,0.4,0.1,0.4,0.3v1.3c0,0.2-0.2,0.3-0.4,0.3h-12.7
	c-0.2,0-0.4-0.1-0.4-0.3L253.5,209.3L253.5,209.3z M250.5,206.7c0,0.2,0.2,0.3,0.4,0.3h15.7c0.2,0,0.4-0.1,0.4-0.3v-1.3
	c0-0.2-0.2-0.3-0.4-0.3h-15.7c-0.2,0-0.4,0.2-0.4,0.3L250.5,206.7L250.5,206.7z M256.5,202.7c0,0.2,0.2,0.3,0.4,0.3h9.7
	c0.2,0,0.4-0.1,0.4-0.3v-1.3c0-0.2-0.2-0.3-0.4-0.3h-9.7c-0.2,0-0.4,0.1-0.4,0.3V202.7z M249,214.7c0,0.2,0.2,0.3,0.4,0.3h17.3
	c0.2,0,0.4-0.1,0.4-0.3v-1.3c0-0.2-0.2-0.3-0.4-0.3h-17.3c-0.2,0-0.4,0.1-0.4,0.3L249,214.7L249,214.7z"/>
<path class="st1" d="M293.5,209.3c0-0.2,0.2-0.3,0.4-0.3h12.7c0.2,0,0.4,0.1,0.4,0.3v1.3c0,0.2-0.2,0.3-0.4,0.3h-12.7
	c-0.2,0-0.4-0.1-0.4-0.3V209.3z M290.5,206.7c0,0.2,0.2,0.3,0.4,0.3h15.7c0.2,0,0.4-0.1,0.4-0.3v-1.3c0-0.2-0.2-0.3-0.4-0.3h-15.7
	c-0.2,0-0.4,0.2-0.4,0.3V206.7z M296.5,202.7c0,0.2,0.2,0.3,0.4,0.3h9.7c0.2,0,0.4-0.1,0.4-0.3v-1.3c0-0.2-0.2-0.3-0.4-0.3h-9.7
	c-0.2,0-0.4,0.1-0.4,0.3V202.7z M289,214.7c0,0.2,0.2,0.3,0.4,0.3h17.3c0.2,0,0.4-0.1,0.4-0.3v-1.3c0-0.2-0.2-0.3-0.4-0.3h-17.3
	c-0.2,0-0.4,0.1-0.4,0.3V214.7z"/>
<path class="st17" d="M332,169.3c0-0.2,0.2-0.3,0.4-0.3h11.3c0.2,0,0.4,0.1,0.4,0.3v1.3c0,0.2-0.2,0.3-0.4,0.3h-11.3
	c-0.2,0-0.4-0.1-0.4-0.3V169.3z M329,166.7c0,0.2,0.2,0.3,0.4,0.3h17.3c0.2,0,0.4-0.1,0.4-0.3v-1.3c0-0.2-0.2-0.3-0.4-0.3h-17.3
	c-0.2,0-0.4,0.1-0.4,0.3V166.7z M332,162.7c0,0.2,0.2,0.3,0.4,0.3h11.3c0.2,0,0.4-0.1,0.4-0.3v-1.3c0-0.2-0.2-0.3-0.4-0.3h-11.3
	c-0.2,0-0.4,0.1-0.4,0.3V162.7z M329,174.7c0,0.2,0.2,0.3,0.4,0.3h17.3c0.2,0,0.4-0.1,0.4-0.3v-1.3c0-0.2-0.2-0.3-0.4-0.3h-17.3
	c-0.2,0-0.4,0.1-0.4,0.3V174.7z"/>
<path class="st1" d="M372,169.3c0-0.2,0.2-0.3,0.4-0.3h11.3c0.2,0,0.4,0.1,0.4,0.3v1.3c0,0.2-0.2,0.3-0.4,0.3h-11.3
	c-0.2,0-0.4-0.1-0.4-0.3V169.3z M369,166.7c0,0.2,0.2,0.3,0.4,0.3h17.3c0.2,0,0.4-0.1,0.4-0.3v-1.3c0-0.2-0.2-0.3-0.4-0.3h-17.3
	c-0.2,0-0.4,0.1-0.4,0.3V166.7z M372,162.7c0,0.2,0.2,0.3,0.4,0.3h11.3c0.2,0,0.4-0.1,0.4-0.3v-1.3c0-0.2-0.2-0.3-0.4-0.3h-11.3
	c-0.2,0-0.4,0.1-0.4,0.3V162.7z M369,174.7c0,0.2,0.2,0.3,0.4,0.3h17.3c0.2,0,0.4-0.1,0.4-0.3v-1.3c0-0.2-0.2-0.3-0.4-0.3h-17.3
	c-0.2,0-0.4,0.1-0.4,0.3V174.7z"/>
<polygon class="st0" points="19,177.2 17.8,176 12.5,181.3 7.2,176 6,177.2 11.3,182.5 6,187.8 7.2,189 12.5,183.7 17.8,189 
	19,187.8 13.7,182.5 "/>
<g>
	<path class="st15" d="M39.7,182.7c-2,0-3.6-1.6-3.6-3.6s1.6-3.6,3.6-3.6s3.6,1.6,3.6,3.6C43.4,181.1,41.7,182.7,39.7,182.7z
		 M39.7,176.9c-1.2,0-2.2,1-2.2,2.2s1,2.2,2.2,2.2s2.2-1,2.2-2.2C42,177.9,41,176.9,39.7,176.9z"/>
	<path class="st15" d="M39.7,172.8c-3.5,0-6.3,2.8-6.3,6.3v6.4c0.4,0.4,0.9,0.8,1.4,1.1v-7.5c0-2.7,2.2-5,5-5c2.7,0,5,2.2,5,5
		c0,2.7-2.2,5-5,5c-1.4,0-2.7-0.6-3.6-1.6v1.8c1,0.7,2.3,1.1,3.6,1.1c3.5,0,6.3-2.8,6.3-6.3C46.1,175.6,43.2,172.8,39.7,172.8z"/>
	<g>
		<path class="st15" d="M46.1,174.8l1.2-0.8c-1.6-2.4-4.4-4-7.5-4c-5,0-9,4-9,9c0,1.8,0.5,3.4,1.4,4.8v-4.7c0-4.2,3.4-7.6,7.6-7.6
			C42.4,171.5,44.7,172.8,46.1,174.8z"/>
		<path class="st15" d="M46.1,183.3c-1.4,2.1-3.7,3.4-6.4,3.4c-1.3,0-2.5-0.3-3.6-0.9v1.5c1.1,0.5,2.3,0.8,3.6,0.8
			c3.1,0,5.9-1.6,7.5-4.1L46.1,183.3z"/>
	</g>
</g>
<g>
	<path class="st3" d="M59.7,182.7c-2,0-3.6-1.6-3.6-3.6s1.6-3.6,3.6-3.6s3.6,1.6,3.6,3.6C63.4,181.1,61.7,182.7,59.7,182.7z
		 M59.7,176.9c-1.2,0-2.2,1-2.2,2.2s1,2.2,2.2,2.2s2.2-1,2.2-2.2C62,177.9,61,176.9,59.7,176.9z"/>
	<path class="st3" d="M59.7,172.8c-3.5,0-6.3,2.8-6.3,6.3v6.4c0.4,0.4,0.9,0.8,1.4,1.1v-7.5c0-2.7,2.2-5,5-5c2.7,0,5,2.2,5,5
		c0,2.7-2.2,5-5,5c-1.4,0-2.7-0.6-3.6-1.6v1.8c1,0.7,2.3,1.1,3.6,1.1c3.5,0,6.3-2.8,6.3-6.3C66.1,175.6,63.2,172.8,59.7,172.8z"/>
	<g>
		<path class="st3" d="M66.1,174.8l1.2-0.8c-1.6-2.4-4.4-4-7.5-4c-5,0-9,4-9,9c0,1.8,0.5,3.4,1.4,4.8v-4.7c0-4.2,3.4-7.6,7.6-7.6
			C62.4,171.5,64.7,172.8,66.1,174.8z"/>
		<path class="st3" d="M66.1,183.3c-1.4,2.1-3.7,3.4-6.4,3.4c-1.3,0-2.5-0.3-3.6-0.9v1.5c1.1,0.5,2.3,0.8,3.6,0.8
			c3.1,0,5.9-1.6,7.5-4.1L66.1,183.3z"/>
	</g>
</g>
<title></title>
<desc></desc>
<g id="Icons_with_numbers">
	<g id="Group" transform="translate(-720.000000, -432.000000)">
		<path id="Rectangle_217" class="st3" d="M790,621.1h17.1v-4.4h2.9v4.4v2.9h-20V621.1z M790,616.7h2.9v4.4H790V616.7z M797.1,602
			h5.7v10.3h2.9l-5.7,7.3l-5.7-7.3h2.9V602H797.1z"/>
	</g>
</g>
<path class="st18" d="M142.2,183.5l-13.3-12.8c-0.5-0.5-1.2-0.7-1.8-0.7H111c-0.7,0-1.3,0.3-1.8,0.7l-13.3,12.8
	c-0.5,0.5-0.8,1.2-0.8,1.9v17.1c0,0.7,0.3,1.4,0.8,1.9l13.3,12.8c0.5,0.5,1.2,0.7,1.8,0.7h16c0.7,0,1.3-0.3,1.8-0.7l13.3-12.8
	c0.5-0.5,0.8-1.2,0.8-1.9v-17.1C143,184.7,142.7,184,142.2,183.5z"/>
<path class="st6" d="M197.2,183.5l-13.3-12.8c-0.5-0.5-1.2-0.7-1.8-0.7H166c-0.7,0-1.3,0.3-1.8,0.7l-13.3,12.8
	c-0.5,0.5-0.8,1.2-0.8,1.9v17.1c0,0.7,0.3,1.4,0.8,1.9l13.3,12.8c0.5,0.5,1.2,0.7,1.8,0.7h16c0.7,0,1.3-0.3,1.8-0.7l13.3-12.8
	c0.5-0.5,0.8-1.2,0.8-1.9v-17.1C198,184.7,197.7,184,197.2,183.5z"/>
<path class="st1" d="M122.5,201.7v4.1c0,0.3-0.1,0.6-0.3,0.8c-0.2,0.2-0.5,0.4-0.8,0.4h-4.6c-0.3,0-0.6-0.1-0.8-0.4
	c-0.2-0.2-0.3-0.5-0.3-0.8v-4.1c0-0.3,0.1-0.6,0.3-0.8c0.2-0.2,0.5-0.4,0.8-0.4h4.6c0.3,0,0.6,0.1,0.8,0.4
	C122.3,201.1,122.5,201.4,122.5,201.7z M123,182.2l-0.5,14.2c0,0.3-0.1,0.6-0.4,0.8c-0.2,0.2-0.5,0.4-0.8,0.4h-4.6
	c-0.3,0-0.6-0.1-0.8-0.4c-0.2-0.2-0.4-0.5-0.4-0.8l-0.5-14.2c0-0.3,0.1-0.6,0.3-0.8s0.5-0.4,0.8-0.4h5.8c0.3,0,0.6,0.1,0.8,0.4
	C122.9,181.6,123,181.9,123,182.2z"/>
<g>
	<path class="st1" d="M170.7,203.9l-10.1-10.2c-0.1-0.1-0.1-0.3,0-0.5l2.9-2.9c0.1-0.1,0.3-0.1,0.5,0l6.9,7l13-13.2
		c0.1-0.1,0.3-0.1,0.5,0l2.9,2.9c0.1,0.1,0.1,0.3,0,0.5l-16.2,16.4C171,204,170.8,204,170.7,203.9z"/>
</g>
<g>
	<g id="Icons_with_numbers_1_">
		<g id="Group_1_" transform="translate(-48.000000, -96.000000)">
			<path id="Shape" class="st15" d="M263.8,279.5V272h-4.5v7.5H257l4.5,4.5l4.5-4.5H263.8L263.8,279.5z"/>
		</g>
	</g>
	<g id="Icons_with_numbers_2_">
		<g id="Group_2_" transform="translate(-48.000000, -96.000000)">
			<path id="Shape_2_" class="st15" d="M250.3,270.5v7.5h4.5v-7.5h2.3l-4.5-4.5l-4.5,4.5H250.3L250.3,270.5z"/>
		</g>
	</g>
</g>
<g>
	<g id="Icons_with_numbers_4_">
		<g id="Group_4_" transform="translate(-48.000000, -96.000000)">
			<path id="Shape_3_" class="st3" d="M283.8,279.5V272h-4.5v7.5H277l4.5,4.5l4.5-4.5H283.8L283.8,279.5z"/>
		</g>
	</g>
	<g id="Icons_with_numbers_3_">
		<g id="Group_3_" transform="translate(-48.000000, -96.000000)">
			<path id="Shape_1_" class="st3" d="M270.3,270.5v7.5h4.5v-7.5h2.3l-4.5-4.5l-4.5,4.5H270.3L270.3,270.5z"/>
		</g>
	</g>
</g>
<g>
	<path class="st1" d="M19,234.6v0.1l0.1,0.1h3.1v5.1c0,0.1,0,0.2,0.1,0.2c0.1,0.1,0.2,0.1,0.2,0.1h3c0.1,0,0.2,0,0.2-0.1
		c0.1-0.1,0.1-0.2,0.1-0.2v-5.1h3.1c0,0,0.1,0,0.1-0.1v-0.1l-4.8-4.5c-0.1-0.1-0.1-0.1-0.2-0.1s-0.2,0-0.2,0.1L19,234.6L19,234.6z"
		/>
	<path class="st1" d="M33.8,241.3l-3-2.3c-0.2-0.1-0.5-0.2-0.7-0.2h-1.7l2.9,2.9h-2.9l-1.5,2.1h-5.8l-1.4-2.1h-2.9l2.9-2.9h-1.8
		c-0.2,0-0.5,0.1-0.7,0.2l-3,2.3c-0.2,0.1-0.3,0.4-0.2,0.6l1.2,3.7c0.1,0.2,0.3,0.4,0.5,0.4h16.6c0.2,0,0.4-0.2,0.5-0.4l1.2-3.7
		C34,241.7,34,241.4,33.8,241.3z"/>
</g>
<g>
	<path class="st6" d="M7.8,344L7.8,344l0.1,0.2h2.6v4.5c0,0.1,0,0.2,0.1,0.2c0.1,0.1,0.2,0.1,0.2,0.1h2.5c0.1,0,0.2,0,0.2-0.1
		c0.1-0.1,0.1-0.2,0.1-0.2v-4.5h2.6c0,0,0.1,0,0.1-0.1V344l-4-3.9c-0.1-0.1-0.1-0.1-0.2-0.1s-0.2,0-0.2,0.1L7.8,344L7.8,344z"/>
	<path class="st6" d="M20.2,349.9l-2.5-2c-0.2-0.1-0.4-0.2-0.6-0.2h-1.4l2.4,2.5h-2.4l-1.3,1.8H9.6l-1.2-1.8H6l2.4-2.5H6.9
		c-0.2,0-0.4,0.1-0.6,0.2l-2.5,2c-0.2,0.1-0.3,0.3-0.2,0.5l1,3.2c0.1,0.2,0.3,0.4,0.4,0.4h14c0.2,0,0.3-0.2,0.4-0.4l1-3.2
		C20.4,350.2,20.4,350,20.2,349.9z"/>
</g>
<g>
	<polygon class="st1" points="31.8,272 22.1,281.6 16.2,275.7 14,277.9 22.1,286 34,274.2 	"/>
</g>
<g id="Group_5_">
	<path id="Triangle_292" class="st19" d="M328,190l8,14h-16L328,190z M327,200v2h2.1v-2H327z M327,194v5h2.1v-5H327z"/>
</g>
<circle class="st20" cx="348" cy="197" r="7"/>
<circle class="st19" cx="367" cy="197" r="7"/>
<g>
	<path class="st1" d="M347.1,198.7v-0.3c0-0.6,0.2-1.3,0.7-1.9c0.4-0.5,0.7-0.9,0.7-1.3c0-0.4-0.3-0.7-0.9-0.7
		c-0.4,0-0.9,0.1-1.2,0.4l-0.4-1.3c0.5-0.3,1.2-0.5,2.1-0.5c1.7,0,2.4,0.9,2.4,1.9c0,0.9-0.6,1.5-1.1,2.1c-0.5,0.5-0.7,1-0.6,1.5
		v0.2L347.1,198.7L347.1,198.7z M346.8,200.3c0-0.6,0.5-1.1,1.1-1.1c0.7,0,1.1,0.5,1.1,1.1s-0.5,1.1-1.1,1.1
		C347.2,201.4,346.8,201,346.8,200.3z"/>
</g>
<polygon class="st21" points="18,317.1 16.9,316 12,320.9 7.1,316 6,317.1 10.9,322 6,326.9 7.1,328 12,323.1 16.9,328 18,326.9 
	13.1,322 "/>
<g id="Ps">
</g>
<g id="Ai">
</g>
<g id="Ai_download">
</g>
<g id="Image">
</g>
<g id="Image_download">
</g>
<g id="Video">
</g>
<g id="Video_download">
</g>
<g id="Ps_download">
</g>
<g id="Doc">
</g>
<g id="Doc_download">
</g>
<g id="Music">
</g>
<g id="Music_download">
</g>
<g id="Pdf_download">
</g>
<g id="Word">
</g>
<g id="Word_download">
</g>
<g id="Exel">
</g>
<g id="Exel_download">
</g>
<g id="Powerpoint">
</g>
<g id="Powerpoint_download">
</g>
<g id="Zip">
</g>
<g id="Zip_download">
</g>
<path class="st22" d="M27.2,311.1c-1.2,0-2.2,1-2.2,2.2v8.9v4.4v6.7c0,1.2,1,2.2,2.2,2.2h15.6c1.2,0,2.2-1,2.2-2.2v-6.7v-4.4v-4.4
	l-6.7-6.7H27.2z"/>
<path class="st20" d="M27.2,310c-1.2,0-2.2,1-2.2,2.2v8.9v4.4v6.7c0,1.2,1,2.2,2.2,2.2h15.6c1.2,0,2.2-1,2.2-2.2v-6.7v-4.4v-4.4
	l-6.7-6.7H27.2z"/>
<path class="st22" d="M45,316.7l-6.7-6.7v4.4c0,1.2,1,2.2,2.2,2.2H45V316.7z"/>
<g id="Icons">
	<g>
		<polygon class="st6" points="68.7,316 59.9,324.9 55.3,320.3 53.8,321.8 59.9,328 70.3,317.5 		"/>
	</g>
</g>
<g id="Icons_1_">
	<g>
		<polygon class="st23" points="91,313.5 85.7,318.7 82.9,316 82,316.9 85.7,320.5 92,314.3 		"/>
	</g>
</g>
<path class="st1" d="M103.8,322.7v2.5c0,0.2-0.1,0.4-0.2,0.5s-0.3,0.2-0.4,0.2h-2.3c-0.2,0-0.3-0.1-0.4-0.2s-0.2-0.3-0.2-0.5v-2.5
	c0-0.2,0.1-0.4,0.2-0.5s0.3-0.2,0.4-0.2h2.3c0.2,0,0.3,0.1,0.4,0.2C103.7,322.4,103.8,322.6,103.8,322.7z M104,310.7l-0.3,8.7
	c0,0.2-0.1,0.4-0.2,0.5s-0.3,0.2-0.4,0.2h-2.3c-0.2,0-0.3-0.1-0.4-0.2s-0.2-0.3-0.2-0.5l-0.2-8.7c0-0.2,0-0.4,0.1-0.5
	s0.3-0.2,0.4-0.2h2.9c0.2,0,0.3,0.1,0.4,0.2C103.9,310.4,104,310.6,104,310.7z"/>
<g>
	<rect x="366" y="193" class="st1" width="2" height="5"/>
	<rect x="366" y="199" class="st1" width="2" height="2"/>
</g>
<path class="st15" d="M209,190c-5,0-9,4-9,9s4,9,9,9s9-4,9-9S214,190,209,190z M209.8,203.4v1.6h-1.5v-1.6c-1.6-0.2-2.6-1.1-2.7-2.5
	h1.7c0.1,0.7,0.8,1.1,1.8,1.1c0.9,0,1.6-0.4,1.6-1.1c0-0.5-0.4-0.8-1.5-1.1l-1.1-0.2c-1.5-0.3-2.3-1.1-2.3-2.4c0-1.4,1-2.3,2.5-2.6
	V193h1.5v1.6c1.5,0.2,2.5,1.2,2.5,2.5h-1.7c-0.1-0.7-0.7-1.1-1.6-1.1c-0.9,0-1.5,0.4-1.5,1.1c0,0.5,0.4,0.8,1.4,1l1,0.2
	c1.7,0.4,2.4,1.1,2.4,2.4C212.4,202.2,211.4,203.2,209.8,203.4z"/>
<path class="st3" d="M229,190c-5,0-9,4-9,9s4,9,9,9s9-4,9-9S234,190,229,190z M229.8,203.4v1.6h-1.5v-1.6c-1.6-0.2-2.6-1.1-2.7-2.5
	h1.7c0.1,0.7,0.8,1.1,1.8,1.1c0.9,0,1.6-0.4,1.6-1.1c0-0.5-0.4-0.8-1.5-1.1l-1.1-0.2c-1.5-0.3-2.3-1.1-2.3-2.4c0-1.4,1-2.3,2.5-2.6
	V193h1.5v1.6c1.5,0.2,2.5,1.2,2.5,2.5h-1.7c-0.1-0.7-0.7-1.1-1.6-1.1c-0.9,0-1.5,0.4-1.5,1.1c0,0.5,0.4,0.8,1.4,1l1,0.2
	c1.7,0.4,2.4,1.1,2.4,2.4C232.4,202.2,231.4,203.2,229.8,203.4z"/>
</svg>
