<?xml version="1.0" encoding="utf-8"?>
<!-- Generator: Adobe Illustrator 21.1.0, SVG Export Plug-In . SVG Version: 6.00 Build 0)  -->
<svg version="1.1" id="Layer_1" xmlns="http://www.w3.org/2000/svg" xmlns:xlink="http://www.w3.org/1999/xlink" x="0px" y="0px"
	 width="200px" height="400px" viewBox="0 0 200 400" style="enable-background:new 0 0 200 400;" xml:space="preserve">
<style type="text/css">
	.st0{fill:#FFFFFF;}
	.st1{fill:#A3B9F7;}
	.st2{fill:#5A627B;}
</style>
<title>sprite-cpo</title>
<g id="Icons_with_numbers">
	<g id="Group">
		<path id="Triangle_292" class="st0" d="M25,9l9,16H16L25,9z M23.9,20.4v2.3h2.3v-2.3H23.9z M23.9,13.6v5.7h2.3v-5.7L23.9,13.6z"/>
	</g>
</g>
<path class="st0" d="M27.5,62.7v-1.6c0-0.1,0-0.2-0.1-0.2s-0.1-0.1-0.2-0.1h-0.9v-5c0-0.1,0-0.2-0.1-0.2s-0.1-0.1-0.2-0.1h-3.1
	c-0.1,0-0.2,0-0.2,0.1s-0.1,0.1-0.1,0.2v1.6c0,0.1,0,0.2,0.1,0.2s0.1,0.1,0.2,0.1h0.9v3.1h-0.9c-0.1,0-0.2,0-0.2,0.1
	s-0.1,0.1-0.1,0.2v1.6c0,0.1,0,0.2,0.1,0.2s0.1,0.1,0.2,0.1h4.4c0.1,0,0.2,0,0.2-0.1V62.7z M26.3,53.9v-1.6c0-0.1,0-0.2-0.1-0.2
	S26.1,52,26,52h-1.9c-0.1,0-0.2,0-0.2,0.1s-0.1,0.1-0.1,0.2v1.6c0,0.1,0,0.2,0.1,0.2s0.1,0.1,0.2,0.1H26c0.1,0,0.2,0,0.2-0.1
	S26.3,54,26.3,53.9z M32.5,58c0,1.3-0.3,2.7-1,3.8c-0.7,1.1-1.6,2-2.7,2.7c-1.1,0.7-2.5,1-3.8,1c-1.3,0-2.7-0.3-3.8-1
	c-1.1-0.7-2-1.6-2.7-2.7c-0.6-1.2-1-2.5-1-3.8c0-1.3,0.3-2.7,1-3.8c0.6-1.1,1.6-2.1,2.7-2.7c1.2-0.6,2.5-1,3.8-1
	c1.3,0,2.7,0.3,3.8,1c1.1,0.6,2.1,1.6,2.7,2.7C32.2,55.3,32.5,56.7,32.5,58z"/>
<g id="icons">
	<path id="notes" class="st1" d="M19.9,106.4c0-0.8-0.6-1.4-1.4-1.4c0,0,0,0,0,0h-5c-0.4,0-0.7,0.1-1,0.4l-7.3,7.3
		c-0.6,0.5-0.6,1.4,0,2c0,0,0,0,0,0l0,0l5,5c0.5,0.6,1.4,0.6,2,0c0,0,0,0,0,0l0,0l7.3-7.3c0.3-0.3,0.4-0.6,0.4-1L19.9,106.4z
		 M15.9,110.5c-0.8,0-1.4-0.6-1.4-1.4c0-0.8,0.6-1.4,1.4-1.4s1.4,0.6,1.4,1.4S16.6,110.5,15.9,110.5
		C15.9,110.5,15.9,110.5,15.9,110.5z"/>
</g>
<g id="icons-2">
	<path id="notes-2" class="st2" d="M19.9,131.4c0-0.8-0.6-1.4-1.4-1.4c0,0,0,0,0,0h-5c-0.4,0-0.7,0.1-1,0.4l-7.3,7.3
		c-0.6,0.5-0.6,1.4,0,2c0,0,0,0,0,0l0,0l5,5c0.5,0.6,1.4,0.6,2,0c0,0,0,0,0,0l0,0l7.3-7.3c0.3-0.3,0.4-0.6,0.4-1L19.9,131.4z
		 M15.9,135.5c-0.8,0-1.4-0.6-1.4-1.4c0-0.8,0.6-1.4,1.4-1.4s1.4,0.6,1.4,1.4S16.6,135.5,15.9,135.5
		C15.9,135.5,15.9,135.5,15.9,135.5z"/>
</g>
<g>
	<path class="st1" d="M34.8,116.7h-1.4l-2.9-5.5l0,0v5.5H29v-8.1h1.4l2.9,5.5l0,0v-5.5h1.4L34.8,116.7z"/>
	<path class="st1" d="M41.1,113.4c0,0.9-0.3,1.8-0.8,2.4c-0.5,0.6-1.3,1-2.2,1c-0.8,0-1.6-0.4-2.1-1c-0.6-0.7-0.9-1.6-0.8-2.4v-1.4
		c0-0.9,0.3-1.8,0.8-2.4c0.5-0.6,1.3-1,2.1-1c0.8,0,1.6,0.4,2.2,1c0.6,0.7,0.9,1.6,0.8,2.4V113.4z M39.7,111.9
		c0-0.5-0.1-1.1-0.4-1.6c-0.2-0.4-0.7-0.6-1.2-0.6c-0.5,0-0.9,0.2-1.1,0.6c-0.3,0.5-0.4,1-0.4,1.6v1.5c0,0.6,0.1,1.1,0.4,1.6
		c0.2,0.4,0.7,0.6,1.1,0.6c0.5,0,0.9-0.2,1.2-0.6c0.3-0.5,0.4-1,0.4-1.6V111.9z"/>
	<path class="st1" d="M43.7,114.5l0.1,0.4l0,0l0.1-0.4l1.5-5.9H47l-2.4,8.1h-1.5l-2.4-8.1h1.5L43.7,114.5z"/>
</g>
<g>
	<path class="st2" d="M34.8,141.7h-1.4l-2.9-5.5l0,0v5.5H29v-8.1h1.4l2.9,5.5l0,0v-5.5h1.4L34.8,141.7z"/>
	<path class="st2" d="M41.1,138.4c0,0.9-0.3,1.8-0.8,2.4c-0.5,0.6-1.3,1-2.2,1c-0.8,0-1.6-0.4-2.1-1c-0.6-0.7-0.9-1.6-0.8-2.4v-1.4
		c0-0.9,0.3-1.8,0.8-2.4c0.5-0.6,1.3-1,2.1-1c0.8,0,1.6,0.4,2.2,1c0.6,0.7,0.9,1.6,0.8,2.4V138.4z M39.7,136.9
		c0-0.5-0.1-1.1-0.4-1.6c-0.2-0.4-0.7-0.6-1.2-0.6c-0.5,0-0.9,0.2-1.1,0.6c-0.3,0.5-0.4,1-0.4,1.6v1.5c0,0.6,0.1,1.1,0.4,1.6
		c0.2,0.4,0.7,0.6,1.1,0.6c0.5,0,0.9-0.2,1.2-0.6c0.3-0.5,0.4-1,0.4-1.6V136.9z"/>
	<path class="st2" d="M43.7,139.5l0.1,0.4l0,0l0.1-0.4l1.5-5.9H47l-2.4,8.1h-1.5l-2.4-8.1h1.5L43.7,139.5z"/>
</g>
<g>
	<path class="st1" d="M59,113.3h-0.9v3.4h-1.6v-8.1h1.6v3.3h0.7l2.1-3.3h2l-2.7,3.8l2.9,4.3h-2L59,113.3z"/>
	<path class="st1" d="M68.8,115.6c-0.3,0.4-0.7,0.7-1.1,0.8c-0.6,0.3-1.3,0.4-1.9,0.4c-0.9,0-1.8-0.3-2.4-0.9
		c-0.6-0.6-1-1.5-0.9-2.4v-1.7c0-0.9,0.3-1.7,0.9-2.4c0.6-0.6,1.4-1,2.3-0.9c0.8-0.1,1.6,0.2,2.3,0.7c0.5,0.5,0.8,1.2,0.8,1.9h-1.5
		c0-0.4-0.2-0.7-0.4-1c-0.3-0.3-0.7-0.4-1.1-0.4c-0.5,0-0.9,0.2-1.2,0.6c-0.3,0.4-0.5,0.9-0.4,1.5v1.7c0,0.5,0.1,1.1,0.5,1.5
		c0.3,0.4,0.8,0.6,1.3,0.6c0.3,0,0.6,0,0.9-0.1c0.2-0.1,0.4-0.2,0.5-0.3v-1.5h-1.4v-1.1h3L68.8,115.6z"/>
</g>
<g>
	<path class="st2" d="M59,138.3h-0.9v3.4h-1.6v-8.1h1.6v3.3h0.7l2.1-3.3h2l-2.7,3.8l2.9,4.3h-2L59,138.3z"/>
	<path class="st2" d="M68.8,140.6c-0.3,0.4-0.7,0.7-1.1,0.9c-0.6,0.3-1.3,0.4-1.9,0.4c-0.9,0-1.8-0.3-2.4-0.9
		c-0.6-0.6-1-1.5-0.9-2.4v-1.7c0-0.9,0.3-1.7,0.9-2.4c0.6-0.6,1.4-1,2.3-0.9c0.8-0.1,1.6,0.2,2.3,0.7c0.5,0.5,0.8,1.2,0.8,1.9h-1.5
		c0-0.4-0.2-0.7-0.4-1c-0.3-0.3-0.7-0.4-1.1-0.4c-0.5,0-0.9,0.2-1.2,0.6c-0.3,0.4-0.5,0.9-0.4,1.5v1.7c0,0.5,0.1,1.1,0.5,1.5
		c0.3,0.4,0.8,0.6,1.3,0.6c0.3,0,0.6,0,0.9-0.1c0.2-0.1,0.4-0.2,0.5-0.3v-1.5h-1.4v-1.1h3L68.8,140.6z"/>
</g>
<g>
	<path class="st1" d="M88.4,113.4H85v3.4h-1.7v-8.3H89v1.3h-4v2.3h3.4L88.4,113.4z"/>
	<path class="st1" d="M90,114.4L90,114.4l0.6-1.1h1.1l-1,1.8l1.1,1.8h-1.1l-0.6-1.2l-0.6,1.2h-1l1.1-1.8l-1-1.8h1.1L90,114.4z"/>
</g>
<g>
	<path class="st2" d="M88.4,138.4H85v3.4h-1.7v-8.3H89v1.3h-4v2.3h3.4L88.4,138.4z"/>
	<path class="st2" d="M90,139.4L90,139.4l0.6-1.1h1.1l-1,1.8l1.1,1.8h-1.1l-0.6-1.2l-0.6,1.2h-1l1.1-1.8l-1-1.8h1.1L90,139.4z"/>
</g>
<g>
	<ellipse class="st1" cx="112.1" cy="117.2" rx="1.3" ry="1.3"/>
	<ellipse class="st1" cx="116.1" cy="117.2" rx="1.3" ry="1.3"/>
	<path class="st1" d="M118.7,108.2h-9c0,0,0,0-0.1,0l-0.2-1.2c0-0.3-0.2-0.5-0.6-0.5h-3.3c-0.7,0-0.8,1.9,0.9,1.6l1.7,0l0.3,1.4v0
		l0.9,4.5c0,0.7,0.6,1.3,1.3,1.3h7.2c0.7,0,1.3-0.6,1.3-1.3l0.9-4.5C120,108.8,119.4,108.2,118.7,108.2z M111,114L111,114
		c-0.3,0-0.5-0.1-0.5-0.4l-0.5-3.5c0-0.2,0.1-0.5,0.4-0.5l0,0c0.2,0,0.5,0.1,0.5,0.4l0.5,3.5C111.4,113.8,111.2,114,111,114z
		 M113.3,114.1L113.3,114.1c-0.3,0-0.5-0.2-0.5-0.4l-0.3-3.6c0-0.2,0.2-0.5,0.4-0.5l0,0c0.2,0,0.5,0.2,0.5,0.4l0.3,3.6
		C113.7,113.8,113.5,114,113.3,114.1z M115.9,113.6c0,0.2-0.2,0.4-0.5,0.4h0c-0.2,0-0.5-0.2-0.4-0.4l0.1-3.6c0-0.2,0.2-0.4,0.5-0.4
		h0c0.2,0,0.5,0.2,0.4,0.4L115.9,113.6z M118.6,110.1l-0.6,3.5c0,0.2-0.3,0.4-0.5,0.4l0,0c-0.3,0-0.4-0.3-0.4-0.5l0.6-3.5
		c0-0.2,0.3-0.4,0.5-0.4l0,0C118.5,109.7,118.6,109.9,118.6,110.1z"/>
</g>
<g>
	<ellipse class="st2" cx="112.1" cy="142.2" rx="1.3" ry="1.3"/>
	<ellipse class="st2" cx="116.1" cy="142.2" rx="1.3" ry="1.3"/>
	<path class="st2" d="M118.7,133.2h-9c0,0,0,0-0.1,0l-0.2-1.2c0-0.3-0.2-0.5-0.6-0.5h-3.3c-0.7,0-0.8,1.9,0.9,1.6l1.7,0l0.3,1.4v0
		l0.9,4.5c0,0.7,0.6,1.3,1.3,1.3h7.2c0.7,0,1.3-0.6,1.3-1.3l0.9-4.5C120,133.8,119.4,133.2,118.7,133.2z M111,139L111,139
		c-0.3,0-0.5-0.1-0.5-0.4l-0.5-3.5c0-0.2,0.1-0.5,0.4-0.5l0,0c0.2,0,0.5,0.1,0.5,0.4l0.5,3.5C111.4,138.8,111.2,139,111,139z
		 M113.3,139.1L113.3,139.1c-0.3,0-0.5-0.2-0.5-0.4l-0.3-3.6c0-0.2,0.2-0.5,0.4-0.5l0,0c0.2,0,0.5,0.2,0.5,0.4l0.3,3.6
		C113.7,138.8,113.5,139,113.3,139.1z M115.9,138.6c0,0.2-0.2,0.4-0.5,0.4h0c-0.2,0-0.5-0.2-0.4-0.4l0.1-3.6c0-0.2,0.2-0.4,0.5-0.4
		h0c0.2,0,0.5,0.2,0.4,0.4L115.9,138.6z M118.6,135.1l-0.6,3.5c0,0.2-0.3,0.4-0.5,0.4l0,0c-0.3,0-0.4-0.3-0.4-0.5l0.6-3.5
		c0-0.2,0.3-0.4,0.5-0.4l0,0C118.5,134.7,118.6,134.9,118.6,135.1z"/>
</g>
</svg>
