<svg id="Layer_1" data-name="Layer 1" xmlns="http://www.w3.org/2000/svg" width="200" height="400" viewBox="0 0 200 400">
  <defs>
    <style>
      .cls-1 {
        fill: #fff;
      }

      .cls-2 {
        fill: #a3b9f7;
      }

      .cls-3 {
        fill: #5a627b;
      }
    </style>
  </defs>
  <title>sprite-cpo</title>
  <g id="Icons_with_numbers" data-name="Icons with numbers">
    <g id="Group">
      <path id="Triangle_292" data-name="Triangle 292" class="cls-1" d="M25,9l9,16H16ZM23.9,20.4v2.3h2.3V20.4Zm0-6.8v5.7h2.3V13.6Z"/>
    </g>
  </g>
  <path class="cls-1" d="M27.5,62.7V61.1c0-.1,0-.2-.1-.2s-.1-.1-.2-.1h-.9v-5c0-.1,0-.2-.1-.2s-.1-.1-.2-.1H22.9c-.1,0-.2,0-.2.1s-.1.1-.1.2v1.6c0,.1,0,.2.1.2s.1.1.2.1h.9v3.1h-.9c-.1,0-.2,0-.2.1s-.1.1-.1.2v1.6c0,.1,0,.2.1.2s.1.1.2.1h4.4c.1,0,.2,0,.2-.1Zm-1.2-8.8V52.3c0-.1,0-.2-.1-.2s-.1-.1-.2-.1H24.1c-.1,0-.2,0-.2.1s-.1.1-.1.2v1.6c0,.1,0,.2.1.2s.1.1.2.1H26c.1,0,.2,0,.2-.1S26.3,54,26.3,53.9ZM32.5,58a7.21,7.21,0,0,1-1,3.8,7.75,7.75,0,0,1-2.7,2.7,7,7,0,0,1-3.8,1,7.21,7.21,0,0,1-3.8-1,7.75,7.75,0,0,1-2.7-2.7,8,8,0,0,1-1-3.8,7.21,7.21,0,0,1,1-3.8,7,7,0,0,1,2.7-2.7,8,8,0,0,1,3.8-1,7.21,7.21,0,0,1,3.8,1,7,7,0,0,1,2.7,2.7A7.21,7.21,0,0,1,32.5,58Z"/>
  <g id="icons">
    <path id="notes" class="cls-2" d="M19.93,106.36A1.36,1.36,0,0,0,18.57,105h-5a1.34,1.34,0,0,0-1,.41l-7.26,7.26a1.39,1.39,0,0,0,0,2l0,0,5,5a1.39,1.39,0,0,0,2,0l0,0,7.26-7.26a1.34,1.34,0,0,0,.41-1Zm-4.07,4.14a1.36,1.36,0,1,1,1.36-1.36,1.36,1.36,0,0,1-1.36,1.36Z"/>
  </g>
  <g id="icons-2">
    <path id="notes-2" class="cls-3" d="M19.93,131.36A1.36,1.36,0,0,0,18.57,130h-5a1.34,1.34,0,0,0-1,.41l-7.26,7.26a1.39,1.39,0,0,0,0,2l0,0,5,5a1.39,1.39,0,0,0,2,0l0,0,7.26-7.26a1.34,1.34,0,0,0,.41-1Zm-4.07,4.14a1.36,1.36,0,1,1,1.36-1.36,1.36,1.36,0,0,1-1.36,1.36Z"/>
  </g>
  <g>
    <path class="cls-2" d="M34.76,116.68H33.34l-2.88-5.51h0v5.51H29v-8.07h1.43l2.88,5.51h0v-5.5h1.42Z"/>
    <path class="cls-2" d="M41.08,113.38a3.64,3.64,0,0,1-.83,2.45,2.7,2.7,0,0,1-2.16,1,2.67,2.67,0,0,1-2.14-1,3.66,3.66,0,0,1-.82-2.45v-1.45a3.67,3.67,0,0,1,.82-2.45,2.66,2.66,0,0,1,2.14-1,2.71,2.71,0,0,1,2.16,1,3.64,3.64,0,0,1,.83,2.45Zm-1.43-1.46a2.67,2.67,0,0,0-.42-1.55,1.32,1.32,0,0,0-1.15-.61,1.28,1.28,0,0,0-1.13.6,2.75,2.75,0,0,0-.4,1.55v1.47a2.76,2.76,0,0,0,.41,1.57,1.29,1.29,0,0,0,1.13.61,1.31,1.31,0,0,0,1.15-.61,2.73,2.73,0,0,0,.41-1.57Z"/>
    <path class="cls-2" d="M43.74,114.54l.09.44h0l.08-.43,1.55-5.93H47l-2.42,8.07H43.11l-2.42-8.07H42.2Z"/>
  </g>
  <g>
    <path class="cls-3" d="M34.76,141.67H33.34l-2.88-5.51h0v5.51H29v-8.07h1.43l2.88,5.49h0v-5.5h1.42Z"/>
    <path class="cls-3" d="M41.08,138.37a3.64,3.64,0,0,1-.83,2.45,2.7,2.7,0,0,1-2.16,1,2.67,2.67,0,0,1-2.14-1,3.66,3.66,0,0,1-.82-2.45v-1.45a3.67,3.67,0,0,1,.82-2.45,2.66,2.66,0,0,1,2.14-1,2.71,2.71,0,0,1,2.16,1,3.64,3.64,0,0,1,.83,2.45Zm-1.43-1.46a2.67,2.67,0,0,0-.42-1.55,1.32,1.32,0,0,0-1.15-.61,1.28,1.28,0,0,0-1.13.6,2.75,2.75,0,0,0-.4,1.55v1.47a2.76,2.76,0,0,0,.41,1.57,1.29,1.29,0,0,0,1.13.61,1.31,1.31,0,0,0,1.15-.61,2.73,2.73,0,0,0,.41-1.57Z"/>
    <path class="cls-3" d="M43.74,139.53l.09.44h0l.08-.43,1.55-5.93H47l-2.42,8.07H43.11l-2.42-8.07H42.2Z"/>
  </g>
  <g>
    <path class="cls-2" d="M59,113.31h-.89v3.37H56.5v-8.07h1.61v3.3h.7l2.13-3.3h2l-2.7,3.76,2.92,4.31h-2Z"/>
    <path class="cls-2" d="M68.8,115.58a3,3,0,0,1-1.12.85,4.35,4.35,0,0,1-1.92.37,3.28,3.28,0,0,1-2.41-.92,3.21,3.21,0,0,1-.93-2.39v-1.68a3.28,3.28,0,0,1,.9-2.39,3.08,3.08,0,0,1,2.31-.92,3.21,3.21,0,0,1,2.25.72,2.49,2.49,0,0,1,.8,1.89H67.15a1.56,1.56,0,0,0-.41-1,1.42,1.42,0,0,0-1.06-.37,1.45,1.45,0,0,0-1.19.57,2.31,2.31,0,0,0-.45,1.47v1.69A2.28,2.28,0,0,0,64.5,115a1.55,1.55,0,0,0,1.26.57,2.9,2.9,0,0,0,.9-.12,1.37,1.37,0,0,0,.52-.29v-1.49H65.77v-1.12h3Z"/>
  </g>
  <g>
    <path class="cls-3" d="M59,138.31h-.89v3.37H56.5v-8.07h1.61v3.3h.7l2.13-3.3h2l-2.7,3.76,2.92,4.31h-2Z"/>
    <path class="cls-3" d="M68.8,140.58a3,3,0,0,1-1.12.85,4.35,4.35,0,0,1-1.92.37,3.28,3.28,0,0,1-2.41-.92,3.21,3.21,0,0,1-.93-2.39v-1.68a3.28,3.28,0,0,1,.9-2.39,3.08,3.08,0,0,1,2.31-.92,3.21,3.21,0,0,1,2.25.72,2.49,2.49,0,0,1,.8,1.89H67.15a1.56,1.56,0,0,0-.41-1,1.42,1.42,0,0,0-1.06-.37,1.45,1.45,0,0,0-1.19.57,2.31,2.31,0,0,0-.45,1.47v1.69A2.28,2.28,0,0,0,64.5,140a1.55,1.55,0,0,0,1.26.57,2.9,2.9,0,0,0,.9-.12,1.37,1.37,0,0,0,.52-.29v-1.49H65.77v-1.12h3Z"/>
  </g>
  <g>
    <path class="cls-2" d="M88.4,113.36H85v3.45H83.35V108.5H89v1.29H85v2.29h3.42Z"/>
    <path class="cls-2" d="M90,114.41h0l.55-1.11h1.06l-1,1.75,1.1,1.77H90.6L90,115.64l-.61,1.17h-1L89.49,115l-1-1.75h1.05Z"/>
  </g>
  <g>
    <path class="cls-3" d="M88.4,138.35H85v3.45H83.35V133.5H89v1.29H85v2.29h3.42Z"/>
    <path class="cls-3" d="M90,139.4h0l.55-1.11h1.06l-1,1.75,1.1,1.77H90.6L90,140.64l-.61,1.17h-1L89.49,140l-1-1.75h1.05Z"/>
  </g>
</svg>
