<?xml version="1.0" encoding="utf-8"?>
<!-- Generator: Adobe Illustrator 21.1.0, SVG Export Plug-In . SVG Version: 6.00 Build 0)  -->
<svg version="1.1" id="Layer_1" xmlns="http://www.w3.org/2000/svg" xmlns:xlink="http://www.w3.org/1999/xlink" x="0px" y="0px"
	 width="200px" height="400px" viewBox="0 0 200 400" style="enable-background:new 0 0 200 400;" xml:space="preserve">
<style type="text/css">
	.st0{fill:#FFFFFF;}
	.st1{fill:#A3B9F7;}
	.st2{fill:#5A627B;}
</style>
<title>sprite-cpo</title>
<g id="Icons_with_numbers">
	<g id="Group">
		<path id="Triangle_292" class="st0" d="M25,9l9,16H16L25,9z M23.9,20.4v2.3h2.3v-2.3H23.9z M23.9,13.6v5.7h2.3v-5.7L23.9,13.6z"/>
	</g>
</g>
<path class="st0" d="M27.5,62.7v-1.6c0-0.1,0-0.2-0.1-0.2s-0.1-0.1-0.2-0.1h-0.9v-5c0-0.1,0-0.2-0.1-0.2s-0.1-0.1-0.2-0.1h-3.1
	c-0.1,0-0.2,0-0.2,0.1s-0.1,0.1-0.1,0.2v1.6c0,0.1,0,0.2,0.1,0.2s0.1,0.1,0.2,0.1h0.9v3.1h-0.9c-0.1,0-0.2,0-0.2,0.1
	s-0.1,0.1-0.1,0.2v1.6c0,0.1,0,0.2,0.1,0.2s0.1,0.1,0.2,0.1h4.4c0.1,0,0.2,0,0.2-0.1C27.5,62.9,27.5,62.7,27.5,62.7z M26.3,53.9
	v-1.6c0-0.1,0-0.2-0.1-0.2S26.1,52,26,52h-1.9c-0.1,0-0.2,0-0.2,0.1s-0.1,0.1-0.1,0.2v1.6c0,0.1,0,0.2,0.1,0.2s0.1,0.1,0.2,0.1H26
	c0.1,0,0.2,0,0.2-0.1S26.3,54,26.3,53.9z M32.5,58c0,1.3-0.3,2.7-1,3.8s-1.6,2-2.7,2.7c-1.1,0.7-2.5,1-3.8,1s-2.7-0.3-3.8-1
	c-1.1-0.7-2-1.6-2.7-2.7c-0.6-1.2-1-2.5-1-3.8s0.3-2.7,1-3.8c0.6-1.1,1.6-2.1,2.7-2.7c1.2-0.6,2.5-1,3.8-1s2.7,0.3,3.8,1
	c1.1,0.6,2.1,1.6,2.7,2.7C32.2,55.3,32.5,56.7,32.5,58z"/>
<g id="icons">
	<path id="notes" class="st1" d="M19.9,106.4c0-0.8-0.6-1.4-1.4-1.4l0,0h-5c-0.4,0-0.7,0.1-1,0.4l-7.3,7.3c-0.6,0.5-0.6,1.4,0,2l0,0
		l0,0l5,5c0.5,0.6,1.4,0.6,2,0l0,0l0,0l7.3-7.3c0.3-0.3,0.4-0.6,0.4-1V106.4z M15.9,110.5c-0.8,0-1.4-0.6-1.4-1.4s0.6-1.4,1.4-1.4
		s1.4,0.6,1.4,1.4S16.6,110.5,15.9,110.5L15.9,110.5z"/>
</g>
<g id="icons-2">
	<path id="notes-2" class="st2" d="M19.9,131.4c0-0.8-0.6-1.4-1.4-1.4l0,0h-5c-0.4,0-0.7,0.1-1,0.4l-7.3,7.3c-0.6,0.5-0.6,1.4,0,2
		l0,0l0,0l5,5c0.5,0.6,1.4,0.6,2,0l0,0l0,0l7.3-7.3c0.3-0.3,0.4-0.6,0.4-1V131.4z M15.9,135.5c-0.8,0-1.4-0.6-1.4-1.4
		c0-0.8,0.6-1.4,1.4-1.4s1.4,0.6,1.4,1.4S16.6,135.5,15.9,135.5L15.9,135.5z"/>
</g>
<g>
	<path class="st1" d="M34.8,116.7h-1.4l-2.9-5.5l0,0v5.5H29v-8.1h1.4l2.9,5.5l0,0v-5.5h1.4L34.8,116.7z"/>
	<path class="st1" d="M41.1,113.4c0,0.9-0.3,1.8-0.8,2.4s-1.3,1-2.2,1c-0.8,0-1.6-0.4-2.1-1c-0.6-0.7-0.9-1.6-0.8-2.4V112
		c0-0.9,0.3-1.8,0.8-2.4s1.3-1,2.1-1s1.6,0.4,2.2,1c0.6,0.7,0.9,1.6,0.8,2.4V113.4z M39.7,111.9c0-0.5-0.1-1.1-0.4-1.6
		c-0.2-0.4-0.7-0.6-1.2-0.6s-0.9,0.2-1.1,0.6c-0.3,0.5-0.4,1-0.4,1.6v1.5c0,0.6,0.1,1.1,0.4,1.6c0.2,0.4,0.7,0.6,1.1,0.6
		c0.5,0,0.9-0.2,1.2-0.6c0.3-0.5,0.4-1,0.4-1.6V111.9z"/>
	<path class="st1" d="M43.7,114.5l0.1,0.4l0,0l0.1-0.4l1.5-5.9H47l-2.4,8.1h-1.5l-2.4-8.1h1.5L43.7,114.5z"/>
</g>
<g>
	<path class="st2" d="M34.8,141.7h-1.4l-2.9-5.5l0,0v5.5H29v-8.1h1.4l2.9,5.5l0,0v-5.5h1.4L34.8,141.7z"/>
	<path class="st2" d="M41.1,138.4c0,0.9-0.3,1.8-0.8,2.4c-0.5,0.6-1.3,1-2.2,1c-0.8,0-1.6-0.4-2.1-1c-0.6-0.7-0.9-1.6-0.8-2.4V137
		c0-0.9,0.3-1.8,0.8-2.4c0.5-0.6,1.3-1,2.1-1s1.6,0.4,2.2,1c0.6,0.7,0.9,1.6,0.8,2.4V138.4z M39.7,136.9c0-0.5-0.1-1.1-0.4-1.6
		c-0.2-0.4-0.7-0.6-1.2-0.6s-0.9,0.2-1.1,0.6c-0.3,0.5-0.4,1-0.4,1.6v1.5c0,0.6,0.1,1.1,0.4,1.6c0.2,0.4,0.7,0.6,1.1,0.6
		c0.5,0,0.9-0.2,1.2-0.6c0.3-0.5,0.4-1,0.4-1.6V136.9z"/>
	<path class="st2" d="M43.7,139.5l0.1,0.4l0,0l0.1-0.4l1.5-5.9H47l-2.4,8.1h-1.5l-2.4-8.1h1.5L43.7,139.5z"/>
</g>
<g>
	<path class="st1" d="M59,113.3h-0.9v3.4h-1.6v-8.1h1.6v3.3h0.7l2.1-3.3h2l-2.7,3.8l2.9,4.3h-2L59,113.3z"/>
	<path class="st1" d="M68.8,115.6c-0.3,0.4-0.7,0.7-1.1,0.8c-0.6,0.3-1.3,0.4-1.9,0.4c-0.9,0-1.8-0.3-2.4-0.9s-1-1.5-0.9-2.4v-1.7
		c0-0.9,0.3-1.7,0.9-2.4c0.6-0.6,1.4-1,2.3-0.9c0.8-0.1,1.6,0.2,2.3,0.7c0.5,0.5,0.8,1.2,0.8,1.9h-1.5c0-0.4-0.2-0.7-0.4-1
		c-0.3-0.3-0.7-0.4-1.1-0.4c-0.5,0-0.9,0.2-1.2,0.6c-0.3,0.4-0.5,0.9-0.4,1.5v1.7c0,0.5,0.1,1.1,0.5,1.5c0.3,0.4,0.8,0.6,1.3,0.6
		c0.3,0,0.6,0,0.9-0.1c0.2-0.1,0.4-0.2,0.5-0.3v-1.5H66v-1.1h3L68.8,115.6z"/>
</g>
<g>
	<path class="st2" d="M59,138.3h-0.9v3.4h-1.6v-8.1h1.6v3.3h0.7l2.1-3.3h2l-2.7,3.8l2.9,4.3h-2L59,138.3z"/>
	<path class="st2" d="M68.8,140.6c-0.3,0.4-0.7,0.7-1.1,0.9c-0.6,0.3-1.3,0.4-1.9,0.4c-0.9,0-1.8-0.3-2.4-0.9
		c-0.6-0.6-1-1.5-0.9-2.4v-1.7c0-0.9,0.3-1.7,0.9-2.4c0.6-0.6,1.4-1,2.3-0.9c0.8-0.1,1.6,0.2,2.3,0.7c0.5,0.5,0.8,1.2,0.8,1.9h-1.5
		c0-0.4-0.2-0.7-0.4-1c-0.3-0.3-0.7-0.4-1.1-0.4c-0.5,0-0.9,0.2-1.2,0.6c-0.3,0.4-0.5,0.9-0.4,1.5v1.7c0,0.5,0.1,1.1,0.5,1.5
		c0.3,0.4,0.8,0.6,1.3,0.6c0.3,0,0.6,0,0.9-0.1c0.2-0.1,0.4-0.2,0.5-0.3v-1.5H66v-1.1h3L68.8,140.6z"/>
</g>
<g>
	<path class="st1" d="M88.4,113.4H85v3.4h-1.7v-8.3H89v1.3h-4v2.3h3.4V113.4z"/>
	<path class="st1" d="M90,114.4L90,114.4l0.6-1.1h1.1l-1,1.8l1.1,1.8h-1.1l-0.6-1.2l-0.6,1.2h-1l1.1-1.8l-1-1.8h1.1L90,114.4z"/>
</g>
<g>
	<path class="st2" d="M88.4,138.4H85v3.4h-1.7v-8.3H89v1.3h-4v2.3h3.4V138.4z"/>
	<path class="st2" d="M90,139.4L90,139.4l0.6-1.1h1.1l-1,1.8l1.1,1.8h-1.1l-0.6-1.2l-0.6,1.2h-1l1.1-1.8l-1-1.8h1.1L90,139.4z"/>
</g>
<path class="st1" d="M121.3,108.9l-5.2-5.2c-0.3-0.3-0.8-0.3-1.1,0L103.6,115c-0.3,0.3-0.3,0.8,0,1l5.2,5.2c0.3,0.3,0.8,0.3,1.1,0
	l11.4-11.3C121.6,109.7,121.6,109.2,121.3,108.9z M118.7,110.5l-2.1-2.1l-0.5,0.5l2.1,2.1l-0.5,0.5l-1.1-1.1l-0.5,0.5l1.1,1.1
	l-0.5,0.4l-1.1-1l-0.5,0.5l1.1,1.1l-0.5,0.5l-2.1-2.1L113,112l2,2l-0.5,0.5l-1.1-1.1l-0.5,0.5l1.1,1.1l-0.5,0.5l-0.9-1l-0.5,0.5
	l1.1,1l-0.5,0.5l-2-2.1l-0.5,0.5l2,2.1l-0.5,0.5l-1.1-1.1l-0.5,0.5l1.1,1.1l-1.6,1.6l-4.1-4.1l10.4-10.3l4.1,4.1L118.7,110.5z"/>
<path class="st2" d="M121.3,133.9l-5.2-5.2c-0.3-0.3-0.8-0.3-1.1,0L103.6,140c-0.3,0.3-0.3,0.8,0,1.1l5.2,5.2c0.3,0.3,0.8,0.3,1.1,0
	l11.4-11.3C121.6,134.6,121.6,134.2,121.3,133.9z M118.7,135.5l-2.1-2.1l-0.5,0.5l2.1,2.1l-0.5,0.5l-1.1-1l-0.5,0.5l1.1,1.1
	l-0.5,0.4l-1.1-1.1l-0.5,0.5l1.1,1l-0.5,0.5l-2.1-2.1L113,137l2,2l-0.5,0.5l-1.1-1l-0.5,0.5l1.1,1.1l-0.5,0.5l-0.9-1.1l-0.5,0.5
	l1.1,1.1l-0.5,0.5l-2-2.1l-0.5,0.5l2,2.1l-0.5,0.5l-1.1-1.1l-0.5,0.5l1.1,1.1l-1.6,1.6l-4.1-4.1l10.4-10.3l4.1,4.1L118.7,135.5z"/>
<g>
	<path class="st1" d="M141.3,111.5c0.9,0,1.6-0.7,1.6-1.6c0-0.9-0.7-1.6-1.6-1.6s-1.6,0.7-1.6,1.6
		C139.6,110.8,140.4,111.5,141.3,111.5z"/>
	<path class="st1" d="M144.1,106.3h-13.1c-0.5,0-0.9,0.4-0.9,0.9v10.7c0,0.5,0.4,0.9,0.9,0.9h13.1c0.5,0,0.9-0.4,0.9-0.9v-10.7
		C145,106.7,144.6,106.3,144.1,106.3z M140.6,112.7c-0.1-0.1-0.3-0.2-0.4-0.2c-0.2,0-0.3,0.1-0.4,0.2l-0.6,0.5
		c-0.1,0.1-0.2,0.2-0.4,0.2c-0.1,0-0.3-0.1-0.4-0.1c0,0-0.1-0.1-0.1-0.1l-1.8-1.9c-0.1-0.1-0.3-0.2-0.6-0.2c-0.2,0-0.4,0.1-0.6,0.3
		l-4.2,5v-8.5c0-0.2,0.2-0.4,0.4-0.4h12c0.2,0,0.4,0.2,0.4,0.4l0,8.5L140.6,112.7z"/>
</g>
<g>
	<path class="st2" d="M141.3,136.5c0.9,0,1.6-0.7,1.6-1.6c0-0.9-0.7-1.6-1.6-1.6s-1.6,0.7-1.6,1.6
		C139.6,135.8,140.4,136.5,141.3,136.5z"/>
	<path class="st2" d="M144.1,131.3h-13.1c-0.5,0-0.9,0.4-0.9,0.9v10.7c0,0.5,0.4,0.9,0.9,0.9h13.1c0.5,0,0.9-0.4,0.9-0.9v-10.7
		C145,131.7,144.6,131.3,144.1,131.3z M140.6,137.7c-0.1-0.1-0.3-0.2-0.4-0.2c-0.2,0-0.3,0.1-0.4,0.2l-0.6,0.5
		c-0.1,0.1-0.2,0.2-0.4,0.2c-0.1,0-0.3-0.1-0.4-0.1c0,0-0.1-0.1-0.1-0.1l-1.8-1.9c-0.1-0.1-0.3-0.2-0.6-0.2c-0.2,0-0.4,0.1-0.6,0.3
		l-4.2,5v-8.5c0-0.2,0.2-0.4,0.4-0.4h12c0.2,0,0.4,0.2,0.4,0.4l0,8.5L140.6,137.7z"/>
</g>
</svg>
